SplineFontDB: 3.0
FontName: Michroma
FullName: Michroma
FamilyName: Michroma
Weight: Book
Copyright: vernon adams
Version: 1.000
ItalicAngle: 0
UnderlinePosition: -103
UnderlineWidth: 102
Ascent: 1638
Descent: 410
sfntRevision: 0x00010000
LayerCount: 2
Layer: 0 0 "Back"  1
Layer: 1 0 "Fore"  0
XUID: [1021 846 39740748 13349921]
FSType: 0
OS2Version: 2
OS2_WeightWidthSlopeOnly: 0
OS2_UseTypoMetrics: 1
CreationTime: 1300382573
ModificationTime: 1328216430
PfmFamily: 81
TTFWeight: 400
TTFWidth: 5
LineGap: 0
VLineGap: 0
Panose: 0 0 0 0 0 0 0 0 0 0
OS2TypoAscent: 730
OS2TypoAOffset: 1
OS2TypoDescent: -134
OS2TypoDOffset: 1
OS2TypoLinegap: 0
OS2WinAscent: -698
OS2WinAOffset: 1
OS2WinDescent: -78
OS2WinDOffset: 1
HheadAscent: -698
HheadAOffset: 1
HheadDescent: 78
HheadDOffset: 1
OS2SubXSize: 1434
OS2SubYSize: 1331
OS2SubXOff: 0
OS2SubYOff: 287
OS2SupXSize: 1434
OS2SupYSize: 1331
OS2SupXOff: 0
OS2SupYOff: 977
OS2StrikeYSize: 102
OS2StrikeYPos: 512
OS2Vendor: 'newt'
OS2CodePages: 20000111.40000000
OS2UnicodeRanges: 800000af.7800204b.14000000.00000000
Lookup: 258 0 0 "'kern' Horizontal Kerning in Latin lookup 0"  {"'kern' Horizontal Kerning in Latin lookup 0 per glyph data 0"  "'kern' Horizontal Kerning in Latin lookup 0 per glyph data 1"  "'kern' Horizontal Kerning in Latin lookup 0 kerning class 2"  } ['kern' ('latn' <'dflt' > ) ]
MarkAttachClasses: 1
DEI: 91125
KernClass2: 8+ 3 "'kern' Horizontal Kerning in Latin lookup 0 kerning class 2" 
 1 T
 1 Y
 3 m n
 1 K
 1 L
 1 P
 1 V
 7 b e o p
 13 a c d e g o q
 5 v w y
 0 {} -512 {} 0 {} 0 {} -512 {} 0 {} 0 {} 0 {} -64 {} 0 {} -128 {} 0 {} 0 {} -128 {} 0 {} 0 {} -64 {} 0 {} 0 {} -256 {} 0 {} 0 {} 0 {} -64 {}
TtTable: prep
PUSHW_1
 511
SCANCTRL
PUSHB_1
 1
SCANTYPE
SVTCA[y-axis]
MPPEM
PUSHB_1
 8
LT
IF
PUSHB_2
 1
 1
INSTCTRL
EIF
PUSHB_2
 70
 6
CALL
IF
POP
PUSHB_1
 16
EIF
MPPEM
PUSHB_1
 20
GT
IF
POP
PUSHB_1
 128
EIF
SCVTCI
PUSHB_1
 6
CALL
NOT
IF
SVTCA[y-axis]
PUSHB_1
 4
DUP
RCVT
PUSHB_1
 3
CALL
WCVTP
SVTCA[x-axis]
PUSHB_1
 5
DUP

StartChar: exclam
Encoding: 33 33 8
Width: 445
GlyphClass: 2
Flags: HW
HStem: 0 192<129 321> 1516 20G<129 321>
VStem: 129 192<0 192 1211.05 1536> 177 96<448 772.949>
LayerCount: 2
Fore
SplineSet
129 1536 m 1xe0
 321 1536 l 1xe0
 273 448 l 1
 177 448 l 1xd0
 129 1536 l 1xe0
321 0 m 1
 129 0 l 1
 129 192 l 1
 321 192 l 1
 321 0 l 1
EndSplineSet
EndChar

StartChar: quotedbl
Encoding: 34 34 9
Width: 730
GlyphClass: 2
Flags: HW
HStem: 1152 384<145 273 465 593>
VStem: 145 128<1152 1324.03> 465 128<1152 1324.03>
LayerCount: 2
Fore
SplineSet
113 1536 m 1
 305 1536 l 1
 273 1152 l 1
 145 1152 l 1
 113 1536 l 1
433 1536 m 1
 625 1536 l 1
 593 1152 l 1
 465 1152 l 1
 433 1536 l 1
EndSplineSet
EndChar

StartChar: numbersign
Encoding: 35 35 10
Width: 1385
GlyphClass: 2
Flags: HW
HStem: 320 160<51 277 488 758 969 1267> 864 160<115 412 623 893 1104 1331>
DStem2: 178 -80 338 -128 0.240769 0.970582<0 412.069 618.165 972.57 1178.67 1590.98> 659 -80 819 -128 0.240769 0.970582<0 412.069 618.165 972.57 1178.67 1590.98>
LayerCount: 2
Fore
SplineSet
758 320 m 1
 449 320 l 1
 338 -128 l 1
 178 -80 l 1
 277 320 l 1
 51 320 l 1
 51 480 l 1
 316 480 l 1
 412 864 l 1
 115 864 l 1
 115 1024 l 1
 451 1024 l 1
 563 1472 l 1
 723 1424 l 1
 623 1024 l 1
 932 1024 l 1
 1044 1472 l 1
 1204 1424 l 1
 1104 1024 l 1
 1331 1024 l 1
 1331 864 l 1
 1065 864 l 1
 969 480 l 1
 1267 480 l 1
 1267 320 l 1
 930 320 l 1
 819 -128 l 1
 659 -80 l 1
 758 320 l 1
488 480 m 1
 797 480 l 1
 893 864 l 1
 584 864 l 1
 488 480 l 1
EndSplineSet
EndChar

StartChar: dollar
Encoding: 36 36 11
Width: 1905
GlyphClass: 2
Flags: HW
HStem: -36 164<399.735 875 1067 1453.45> 704 160<418.284 875 1067 1498.51> 1152 21G<1626 1818> 1408.26 159.738<448.147 875 1067 1508.19>
VStem: 90 192<229.089 384 975.963 1276.63> 875 192<-128 -36 128 704 864 1408 1568 1664> 1626 192<270.247 592.813 1152 1308.95>
LayerCount: 2
Fore
SplineSet
1818 424 m 256
 1818 19.3408 1475.07 -33.2617 1067 -36 c 1
 1067 -128 l 1
 875 -128 l 1
 875 -36 l 1
 794 -36 l 2
 402.987 -36 91 -5.31348 91 384 c 1
 283 384 l 1
 283 141.955 463.707 127.749 697.985 127.749 c 0
 729.143 127.749 761.247 128 794 128 c 2
 875 128 l 1
 875 704 l 1
 858 704 l 2
 511.523 704 139.149 707.737 98 1003.5 c 0
 92.667 1041.83 90 1083.33 90 1128 c 0
 90 1534.35 467.358 1562.65 875 1568 c 1
 875 1664 l 1
 1067 1664 l 1
 1067 1568 l 1
 1114 1568 l 2
 1504.13 1568 1818 1540.52 1818 1152 c 1
 1626 1152 l 1
 1626 1393.89 1445.32 1408.26 1211.3 1408.26 c 0
 1179.73 1408.26 1147.2 1408 1114 1408 c 2
 1067 1408 l 1
 1067 864 l 1
 1122 864 l 2
 1456.85 864 1774.19 844.455 1810.5 554 c 0
 1815.5 514 1818 470.667 1818 424 c 256
875 1408 m 1
 582.038 1404.36 282 1410.97 282 1128 c 0
 282 879.852 499.011 863.633 745.463 863.633 c 0
 782.522 863.633 820.247 864 858 864 c 2
 875 864 l 1
 875 1408 l 1
1067 128 m 1
 1358.12 129.854 1626 142.769 1626 424 c 256
 1626 702.687 1410.16 704 1122 704 c 2
 1067 704 l 1
 1067 128 l 1
EndSplineSet
EndChar

StartChar: ampersand
Encoding: 38 38 13
Width: 2269
GlyphClass: 2
Flags: HW
HStem: -2.21103 189.786<430.684 1555.94> 1410.62 157.403<536.304 1442.74>
VStem: 73 192<329.86 701.485> 265 192<1102.69 1341.92> 1545 192<1120 1316.28> 1705 192<450.696 768>
DStem2: 617 1024 585 833 0.890906 -0.454187<-11.8861 1831.84>
LayerCount: 2
Fore
SplineSet
1265.03 188.684 m 0xe0
 1534.61 188.684 1705 232.399 1705 512 c 2
 1705 768 l 1
 1897 768 l 1
 1897 704 l 2
 1897 352.055 1870.5 122.64 1598 46 c 0
 1440.23 1.62598 1253.14 0 1033 0 c 0
 943.445 0 852.843 -2.21094 764.954 -2.21094 c 0
 446.002 -2.21094 162.783 26.9082 95 296.5 c 0
 80.333 354.834 73 426.667 73 512 c 0xe4
 73 750.48 197.916 960 425 960 c 1
 341.126 1015.92 265 1078.08 265 1216 c 0
 265 1559.86 578.29 1568.02 918.051 1568.02 c 2
 969 1568 l 2
 1035.63 1568 1102.46 1569.32 1167.34 1569.32 c 0
 1442.36 1569.32 1682.44 1545.64 1724.5 1297.5 c 0
 1732.83 1248.5 1737 1189.33 1737 1120 c 1
 1545 1120 l 1
 1545 1375.15 1443.3 1402.38 1189.5 1406.5 c 0
 1127.83 1407.5 1054.33 1408 969 1408 c 0
 907.263 1408 843.57 1410.62 782.972 1410.62 c 0
 606.929 1410.62 457 1388.53 457 1216 c 0xd8
 457 1110.29 541.938 1061.53 617 1024 c 2
 2249 192 l 1
 2185 32 l 1
 585 833 l 1
 374.578 833 265 724.6 265 512 c 0
 265 224.527 474.726 187.575 741.654 187.575 c 0
 834.026 187.575 933.248 192 1033 192 c 0
 1108.8 192 1188.35 188.684 1265.03 188.684 c 0xe0
EndSplineSet
EndChar

StartChar: quotesingle
Encoding: 39 39 14
Width: 410
GlyphClass: 2
Flags: HW
HStem: 1152 384<145 273>
VStem: 145 128<1152 1324.03>
LayerCount: 2
Fore
SplineSet
113 1536 m 1
 305 1536 l 1
 273 1152 l 1
 145 1152 l 1
 113 1536 l 1
EndSplineSet
EndChar

StartChar: parenleft
Encoding: 40 40 15
Width: 660
GlyphClass: 2
Flags: HW
HStem: -64 160<438.889 612> 1440 160<439.661 612>
VStem: 100 191.348<283.897 1249.38>
LayerCount: 2
Fore
SplineSet
292 768 m 256
 292 716.834 291.348 666.188 291.348 617.015 c 0
 291.348 331.723 313.305 96 612 96 c 1
 612 -64 l 1
 144.736 -64 100 302.826 100 768.001 c 0
 100 1230.79 147.214 1600 612 1600 c 1
 612 1440 l 1
 313.305 1440 291.348 1204.27 291.348 918.981 c 0
 291.348 869.809 292 819.164 292 768 c 256
EndSplineSet
EndChar

StartChar: parenright
Encoding: 41 41 16
Width: 673
GlyphClass: 2
Flags: HW
HStem: -64 160<60 232.338> 1440 160<60 233.11>
VStem: 380 192<286.792 1252.1>
LayerCount: 2
Fore
SplineSet
60 1600 m 1
 527.264 1600 572 1233.17 572 768 c 256
 572 305.22 524.783 -64 60 -64 c 1
 60 96 l 1
 358.745 96 380.646 331.961 380.646 617.422 c 0
 380.646 666.468 380 716.977 380 768 c 256
 380 819.027 380.646 869.538 380.646 918.588 c 0
 380.646 1204.05 358.744 1440 60 1440 c 1
 60 1600 l 1
EndSplineSet
EndChar

StartChar: asterisk
Encoding: 42 42 17
Width: 1230
GlyphClass: 2
Flags: HW
HStem: 1516 20G<518 710>
LayerCount: 2
Fore
SplineSet
326 384 m 1
 170 495 l 1
 534 896 l 1
 34 1072 l 1
 134 1250 l 1
 566 992 l 1
 518 1536 l 1
 710 1536 l 1
 662 992 l 1
 1093 1250 l 1
 1193 1072 l 1
 694 896 l 1
 1058 495 l 1
 902 384 l 1
 614 834 l 1
 326 384 l 1
EndSplineSet
EndChar

StartChar: plus
Encoding: 43 43 18
Width: 1217
GlyphClass: 2
Flags: HW
HStem: 800 160<67 515 707 1155>
VStem: 515 192<320 800 960 1408>
LayerCount: 2
Fore
SplineSet
67 960 m 1
 515 960 l 1
 515 1408 l 1
 707 1408 l 1
 707 960 l 1
 1155 960 l 1
 1155 800 l 1
 707 800 l 1
 707 320 l 1
 515 320 l 1
 515 800 l 1
 67 800 l 1
 67 960 l 1
EndSplineSet
EndChar

StartChar: comma
Encoding: 44 44 19
Width: 444
GlyphClass: 2
Flags: HW
HStem: -256 384<152 216>
VStem: 88 256
LayerCount: 2
Fore
SplineSet
152 128 m 1
 344 128 l 1
 216 -256 l 1
 88 -256 l 1
 152 128 l 1
EndSplineSet
EndChar

StartChar: hyphen
Encoding: 45 45 20
Width: 1175
GlyphClass: 2
Flags: HW
HStem: 512 160<202 970>
LayerCount: 2
Fore
SplineSet
202 672 m 1
 970 672 l 1
 970 512 l 1
 202 512 l 1
 202 672 l 1
EndSplineSet
EndChar

StartChar: period
Encoding: 46 46 21
Width: 418
GlyphClass: 2
Flags: HW
HStem: 0 192<115 307>
VStem: 115 192<0 192>
LayerCount: 2
Fore
SplineSet
307 0 m 1
 115 0 l 1
 115 192 l 1
 307 192 l 1
 307 0 l 1
EndSplineSet
EndChar

StartChar: slash
Encoding: 47 47 22
Width: 934
GlyphClass: 2
Flags: HW
HStem: 0 21G<17 218.167> 1516 20G<711.833 913>
DStem2: 17 0 209 0 0.416655 0.909065<79.9977 1689.65>
LayerCount: 2
Fore
SplineSet
721 1536 m 1
 913 1536 l 1
 209 0 l 1
 17 0 l 1
 721 1536 l 1
EndSplineSet
EndChar

StartChar: zero
Encoding: 48 48 23
Width: 2180
GlyphClass: 2
Flags: HW
HStem: -32 160<531.978 1647.86> 1408 160<530.465 1647.12>
VStem: 197.002 186.528<273.342 1255.43> 1793.45 191.552<274.42 1262.86>
LayerCount: 2
Fore
SplineSet
1282 1568 m 2
 1746.2 1568 1967.52 1463.34 1981.5 1016 c 0
 1983.83 941.333 1985 858.667 1985 768 c 258
 1985 756.178 l 2
 1985 436.635 1983.75 169.799 1777 54.5 c 0
 1654.13 -14.0273 1488.25 -32 1282 -32 c 2
 897.002 -32 l 2
 434.174 -32 208.995 72.2344 197.002 520 c 0
 195.002 594.667 194.002 677.334 194.002 768 c 258
 194 792.617 l 2
 194 1107.46 196.598 1366.95 402.002 1481.5 c 0
 524.878 1550.03 690.756 1568 897.002 1568 c 2
 1282 1568 l 2
1282 128 m 2
 1543.59 128 1731.27 129.312 1774 346 c 0
 1790.94 431.883 1793.45 525.854 1793.45 630.156 c 0
 1793.45 674.206 1793 720.098 1793 768 c 256
 1793 836.359 1795.42 905.825 1795.42 972.357 c 0
 1795.42 1154.54 1777.26 1314.72 1641.5 1370 c 0
 1548.68 1407.79 1429.25 1408 1286.88 1408 c 2
 897.002 1408 l 2
 635.16 1408 446.772 1406.91 404.002 1190 c 0
 388.002 1108.86 385.315 1020.45 385.315 922.983 c 0
 385.315 873.715 386.002 822.132 386.002 768 c 256
 386.002 699.455 383.53 629.595 383.53 562.64 c 0
 383.53 380.913 401.739 220.58 537.002 166 c 0
 630.896 128.112 750.665 128 894.416 128 c 2
 897.002 128 l 1
 1282 128 l 2
EndSplineSet
EndChar

StartChar: one
Encoding: 49 49 24
Width: 900
GlyphClass: 2
Flags: HW
HStem: 0 21G<563 755> 1516 20G<475.923 755>
VStem: 563 192<0 1376>
DStem2: 19 1120 115 992 0.755689 0.654931<0 578.757>
LayerCount: 2
Fore
SplineSet
499 1536 m 1
 755 1536 l 1
 755 0 l 1
 563 0 l 1
 563 1376 l 1
 115 992 l 1
 19 1120 l 1
 499 1536 l 1
EndSplineSet
EndChar

StartChar: two
Encoding: 50 50 25
Width: 1928
GlyphClass: 2
Flags: HW
HStem: 0 160<297 1801> 1410.89 157.105<509.237 1488.56>
VStem: 105 192<160 474.452 992 1267.99> 1640 193<862.235 1278.85>
DStem2: 425 704 489 544 0.995634 0.0933407<-91.3488 1171.82>
LayerCount: 2
Fore
SplineSet
105 192 m 2
 105 480.994 158.97 679.17 425 704 c 2
 1449 800 l 1
 1614.68 813.87 1640 901.164 1640 1087 c 0
 1640 1383.01 1451.33 1409.21 1183.64 1409.21 c 0
 1126.05 1409.21 1064.81 1408 1001 1408 c 0
 923.431 1408 843.492 1410.89 766.609 1410.89 c 0
 524.844 1410.89 313.276 1382.27 300.5 1145 c 0
 298.167 1101.67 297 1050.67 297 992 c 1
 105 992 l 1
 105 1545.93 445.012 1568 1001 1568 c 258
 1003.09 1568 l 2
 1473.03 1568 1833 1567.64 1833 1088 c 0
 1833 822.634 1757.25 662.898 1513 640 c 2
 489 544 l 2
 308.208 526.664 296.759 421.712 296.759 242.572 c 0
 296.759 216.595 297 189.057 297 160 c 1
 1801 160 l 1
 1801 0 l 1
 105 0 l 1
 105 192 l 2
EndSplineSet
EndChar

StartChar: three
Encoding: 51 51 26
Width: 1911
GlyphClass: 2
Flags: HW
HStem: -32.037 160.006<406.761 1466.37> 704 160<721 1564.42> 1415.04 153.048<394.891 1464.56>
VStem: 81 192<247.345 480 1088 1304.64> 1616 193<254.708 650.78 910.163 1278.85>
LayerCount: 2
Fore
SplineSet
1205.51 124.45 m 0
 1468.47 124.45 1616 173.059 1616 449 c 0
 1616 616.818 1589 704 1425 704 c 2
 721 704 l 1
 721 864 l 1
 1425 864 l 2
 1577.55 864 1616 931.456 1616 1087 c 0
 1616 1383.01 1427.33 1409.21 1159.64 1409.21 c 0
 1102.05 1409.21 1040.81 1408 977 1408 c 0
 886.453 1408 781.604 1415.04 681.026 1415.04 c 0
 475.99 1415.04 288.701 1385.79 276.5 1208 c 0
 274.167 1174 273 1134 273 1088 c 1
 81 1088 l 1
 81 1552.1 424.61 1568.09 875.269 1568.09 c 0
 908.624 1568.09 942.566 1568 977 1568 c 258
 979.095 1568 l 2
 1449.03 1568 1809 1567.64 1809 1088 c 0
 1809 917.203 1766.85 834.505 1649 784 c 1
 1767.97 733.014 1809 619.93 1809 448 c 0
 1809 -27.0889 1454.27 -32 977 -32 c 256
 951.204 -32 925.705 -32.0371 900.539 -32.0371 c 0
 433.275 -32.0371 81 -19.2793 81 480 c 1
 273 480 l 1
 273 268.515 298.529 184.631 481.5 152 c 0
 608.142 129.414 743.72 127.969 904.547 127.969 c 0
 928.137 127.969 952.271 128 977 128 c 0
 1052.14 128 1130.51 124.45 1205.51 124.45 c 0
EndSplineSet
EndChar

StartChar: four
Encoding: 52 52 27
Width: 1882
GlyphClass: 2
Flags: HW
HStem: 0 21G<1397 1589> 320 160<245 1397 1589 1845> 1516 20G<1308 1589>
VStem: 1397 192<0 320 480 1408>
DStem2: 53 512 245 480 0.780869 0.624695<129.937 1609.21>
LayerCount: 2
Fore
SplineSet
1589 320 m 1
 1589 0 l 1
 1397 0 l 1
 1397 320 l 1
 53 320 l 1
 53 512 l 1
 1333 1536 l 1
 1589 1536 l 1
 1589 480 l 1
 1845 480 l 1
 1845 320 l 1
 1589 320 l 1
1397 480 m 1
 1397 1408 l 1
 245 480 l 1
 1397 480 l 1
EndSplineSet
EndChar

StartChar: five
Encoding: 53 53 28
Width: 1943
GlyphClass: 2
Flags: HW
HStem: -32.037 160.006<453.549 1512.39> 896 160<467.873 1555.91> 1376 160<320 1792>
VStem: 128 192<247.345 480 736 806.835 896 1376> 1664 192<267.55 791.98>
LayerCount: 2
Fore
SplineSet
320 896 m 1
 381.265 1018.53 576.469 1056 768 1056 c 2
 1280 1056 l 2
 1617.43 1056 1821.27 992.507 1849 685.5 c 0
 1853.67 633.833 1856 576 1856 512 c 0
 1856 2.31641 1536.31 -32 1024 -32 c 256
 998.204 -32 972.705 -32.0371 947.539 -32.0371 c 0
 480.275 -32.0371 128 -19.2793 128 480 c 1
 320 480 l 1
 320 268.161 344.896 184.744 528.5 152 c 0
 655.142 129.414 790.72 127.969 951.547 127.969 c 0
 975.137 127.969 999.271 128 1024 128 c 0
 1087.43 128 1150.51 126.331 1210.92 126.331 c 0
 1430.4 126.331 1614.6 148.36 1652 352.5 c 0
 1660 396.167 1664 449.667 1664 513 c 0
 1664 721.984 1648.42 856.253 1475 884 c 0
 1425 892 1360 896 1280 896 c 2
 768 896 l 2
 553.46 896 370.331 886.993 320 736 c 1
 128 736 l 1
 128 1536 l 1
 1792 1536 l 1
 1792 1376 l 1
 320 1376 l 1
 320 896 l 1
EndSplineSet
EndChar

StartChar: six
Encoding: 54 54 29
Width: 1896
GlyphClass: 2
Flags: HW
HStem: -32 160<459.728 1504.86> 768 160<408.263 1490.27> 1408 160<451.354 1417.85>
VStem: 102.5 188.5<287.712 675.823 832 1259.85> 1603 159<1120 1263> 1635 192<235.993 638.368>
LayerCount: 2
Fore
SplineSet
1827 448 m 256xf4
 1827 35.6455 1549.02 -32 1124 -32 c 2
 803 -32 l 2
 338.602 -32 116.488 72.3711 102.5 520 c 0
 100.167 594.667 99 677.334 99 768 c 0
 99 1116.99 100.494 1381.23 345.5 1488.5 c 0
 497.252 1554.94 692.729 1568 931 1568 c 0
 1365.85 1568 1762 1551 1762 1120 c 1
 1603 1120 l 1xf8
 1603 1396.81 1297.56 1408.09 1007.6 1408.09 c 0
 981.873 1408.09 956.264 1408 931 1408 c 0
 874.195 1408 817.581 1409.17 762.925 1409.17 c 0
 552.402 1409.17 370.931 1391.78 319.5 1223 c 0
 293.491 1137.64 290.822 1037.83 290.822 923.497 c 0
 290.822 893.968 291 863.47 291 832 c 1
 415.491 907.014 586.716 928 803 928 c 2
 1124 928 l 2
 1549.04 928 1827 860.377 1827 448 c 256xf4
803 768 m 2
 751.861 768 701.862 769.183 654.381 769.183 c 0
 449.184 769.183 291 747.094 291 512 c 0
 291 169.05 455.999 128 803 128 c 2
 1124 128 l 2
 1135.97 128 1147.92 127.986 1159.82 127.986 c 0
 1389.99 127.986 1601.36 132.963 1628.5 335.5 c 0
 1632.83 367.833 1635 405.333 1635 448 c 256xf4
 1635 758.979 1437.71 768 1124 768 c 2
 803 768 l 2
EndSplineSet
EndChar

StartChar: seven
Encoding: 55 55 30
Width: 1820
GlyphClass: 2
Flags: HW
HStem: 0 21G<369 642.143> 1376 160<49 1553>
VStem: 369 256<0 256>
DStem2: 369 0 625 0 0.652242 0.758011<166.974 1815.28>
LayerCount: 2
Fore
SplineSet
625 0 m 1
 369 0 l 1
 1553 1376 l 1
 49 1376 l 1
 49 1536 l 1
 1777 1536 l 1
 1777 1344 l 1
 625 0 l 1
EndSplineSet
EndChar

StartChar: eight
Encoding: 56 56 31
Width: 2095
GlyphClass: 2
Flags: HW
HStem: -32 160<510.327 1579.71> 736 159.805<516.182 1574.52> 1408.39 159.606<515.01 1570.04>
VStem: 183 192<253.033 626.794> 215 192<995.364 1307.79> 1687 192<989.071 1306.1> 1719 192<251.242 612.025>
LayerCount: 2
Fore
SplineSet
215 1152 m 0xe8
 215 1526.11 527.553 1568 918 1568 c 2
 1176 1568 l 2
 1566.49 1568 1879 1526.13 1879 1152 c 0xec
 1879 962.068 1796.82 868.92 1655 816 c 1
 1818.09 755.913 1911 649.584 1911 432 c 0
 1911 29.5234 1613.05 -32 1207 -32 c 2
 886 -32 l 2
 472.655 -32 183 33.0518 183 432 c 0xf2
 183 650.093 275.015 756.369 439 816 c 1
 296.636 869.121 215 961.412 215 1152 c 0xe8
1207 128 m 2
 1506.13 128 1719 129.895 1719 432 c 0
 1719 726.472 1504.37 736 1207 736 c 2
 886 736 l 2
 648.497 736 411.188 735.754 381.5 532.5 c 0
 377.167 502.833 375 469.333 375 432 c 0xf2
 375 135.325 586.443 128 886 128 c 2
 1207 128 l 2
816.244 1408.39 m 0
 576.461 1408.39 407 1390.64 407 1152 c 0
 407 908.987 594.352 895.805 830.052 895.805 c 0
 858.735 895.805 888.135 896 918 896 c 2
 1207 896 l 2
 1232.96 896 1258.3 895.874 1282.92 895.874 c 0
 1518.58 895.874 1687 907.437 1687 1152 c 0xec
 1687 1396.71 1490.16 1408.12 1250.22 1408.12 c 0
 1225.55 1408.12 1200.42 1408 1175 1408 c 2
 918 1408 l 2
 884.695 1408 850.457 1408.39 816.244 1408.39 c 0
EndSplineSet
EndChar

StartChar: nine
Encoding: 57 57 32
Width: 1906
GlyphClass: 2
Flags: HW
HStem: -32 160<485.159 1451.65> 608 160<412.729 1491.6> 1408 160<398.142 1461.91>
VStem: 76 192<897.632 1300.01> 141 159<273.008 416> 1612.18 191.822<276.151 704 860.14 1262.98>
LayerCount: 2
Fore
SplineSet
76 1088 m 256xf4
 76 1500.35 353.982 1568 779 1568 c 2
 1100 1568 l 2
 1564.4 1568 1786.51 1463.63 1800.5 1016 c 0
 1802.83 941.333 1804 858.667 1804 768 c 0
 1804 419.006 1802.51 154.773 1557.5 47.5 c 0
 1405.75 -18.9424 1210.27 -32 971.998 -32 c 0
 537.163 -32 141 -14.9941 141 416 c 1
 300 416 l 1xec
 300 139.004 606.517 127.916 896.795 127.916 c 0
 922.057 127.916 947.196 128 972 128 c 0
 1028.81 128 1085.42 126.827 1140.08 126.827 c 0
 1350.6 126.827 1532.08 144.222 1583.5 313 c 0
 1609.51 398.362 1612.18 498.167 1612.18 612.501 c 0
 1612.18 642.031 1612 672.53 1612 704 c 1
 1487.51 628.981 1316.28 608 1100 608 c 2
 779 608 l 2
 353.955 608 76 675.623 76 1088 c 256xf4
1100 768 m 2
 1152.91 768 1203.93 766.84 1251.9 766.84 c 0
 1460.72 766.84 1612 788.811 1612 1024 c 0
 1612 1255.65 1557.59 1362.91 1357 1393 c 0
 1290.33 1403 1204.66 1408 1100 1408 c 2
 779 1408 l 1
 743.184 1408.01 l 2
 513.009 1408.01 301.645 1403.04 274.5 1200.5 c 0
 270.167 1168.17 268 1130.67 268 1088 c 256xf4
 268 777.021 465.295 768 779 768 c 2
 1100 768 l 2
EndSplineSet
EndChar

StartChar: colon
Encoding: 58 58 33
Width: 452
GlyphClass: 2
Flags: HW
HStem: 192 192<133 325> 768 192<133 325>
VStem: 133 192<192 384 768 960>
LayerCount: 2
Fore
SplineSet
325 768 m 1
 133 768 l 1
 133 960 l 1
 325 960 l 1
 325 768 l 1
325 192 m 1
 133 192 l 1
 133 384 l 1
 325 384 l 1
 325 192 l 1
EndSplineSet
EndChar

StartChar: semicolon
Encoding: 59 59 34
Width: 480
GlyphClass: 2
Flags: HW
HStem: 768 192<173 365>
VStem: 173 192<468.992 512 768 960>
LayerCount: 2
Fore
SplineSet
173 512 m 1
 365 512 l 1
 237 128 l 1
 109 128 l 1
 173 512 l 1
365 768 m 1
 173 768 l 1
 173 960 l 1
 365 960 l 1
 365 768 l 1
EndSplineSet
EndChar

StartChar: less
Encoding: 60 60 35
Width: 1060
GlyphClass: 2
Flags: HW
VStem: 64 144<736 928>
LayerCount: 2
Fore
SplineSet
960 1472 m 1
 960 1216 l 1
 208 832 l 1
 960 448 l 1
 960 192 l 1
 64 736 l 1
 64 928 l 1
 960 1472 l 1
EndSplineSet
EndChar

StartChar: equal
Encoding: 61 61 36
Width: 1623
GlyphClass: 2
Flags: HW
HStem: 320 160<202 1418> 864 160<202 1418>
LayerCount: 2
Fore
SplineSet
202 1024 m 1
 1418 1024 l 1
 1418 864 l 1
 202 864 l 1
 202 1024 l 1
202 480 m 1
 1418 480 l 1
 1418 320 l 1
 202 320 l 1
 202 480 l 1
EndSplineSet
EndChar

StartChar: greater
Encoding: 62 62 37
Width: 1064
GlyphClass: 2
Flags: HW
VStem: 860 144<736 928>
LayerCount: 2
Fore
SplineSet
1004 928 m 1
 1004 736 l 1
 108 192 l 1
 108 448 l 1
 860 832 l 1
 108 1216 l 1
 108 1472 l 1
 1004 928 l 1
EndSplineSet
EndChar

StartChar: question
Encoding: 63 63 38
Width: 1708
GlyphClass: 2
Flags: HW
HStem: 0 192<614 806> 736 160<914.541 1347.44> 1408 160.277<327.813 1342.8>
VStem: 38 192<1122 1320.89> 614 192<0 192 321 623.542> 1445 193<982.043 1315.15>
LayerCount: 2
Fore
SplineSet
1638 1153 m 0
 1638 874.849 1472.97 736 1190 736 c 0
 940.926 736 815.766 703.731 808 463 c 0
 806.667 421.667 806 374.333 806 321 c 1
 614 321 l 1
 614 387 l 2
 614 759.173 748.82 896 1126 896 c 0
 1333.61 896 1445 942.116 1445 1152 c 0
 1445 1390.23 1283.57 1408.61 1061.22 1408.61 c 0
 1020.64 1408.61 978.028 1408 934 1408 c 0
 844.117 1408 734.648 1415.85 629.184 1415.85 c 0
 430.552 1415.85 246.125 1388.01 233.5 1227.5 c 0
 231.167 1197.83 230 1162.66 230 1122 c 1
 38 1122 l 1
 38 1546.68 378.927 1568.28 791.515 1568.28 c 0
 838.222 1568.28 885.847 1568 934 1568 c 0
 1331.01 1568 1638 1551.53 1638 1153 c 0
806 0 m 1
 614 0 l 1
 614 192 l 1
 806 192 l 1
 806 0 l 1
EndSplineSet
EndChar

StartChar: at
Encoding: 64 64 39
Width: 2151
GlyphClass: 2
Flags: HW
HStem: -224 167.5<607.393 1751> 128 160<750.022 1355.75 1670.63 1858.5> 864.375 159.625<747.553 1330.53> 1216.72 159.278<611.799 1612.39>
VStem: 88 193<204.162 975.774> 472 192<365.498 790.691> 1464 192<379.267 770.309 864 992> 1880 192<309.034 974.519>
LayerCount: 2
Fore
SplineSet
1464 573 m 0
 1464 838.225 1341.91 864 1077 864 c 0
 1046.29 864 1016.06 864.375 986.787 864.375 c 0
 818.866 864.375 682.439 852.05 668 686 c 0
 665.333 655.333 664 618.667 664 576 c 256
 664 364.137 710.507 301.974 914 291.5 c 0
 959.333 289.167 1013.67 288 1077 288 c 0
 1338.87 288 1464 310.876 1464 573 c 0
1751 288 m 0
 1876.95 288 1880 352.604 1880 480 c 2
 1880 768 l 2
 1880 1212.81 1574.98 1216 1131.45 1216 c 2
 1112 1216 l 2
 1053.97 1216 996.049 1216.72 939.38 1216.72 c 0
 669.674 1216.72 428.378 1200.37 339.5 1012 c 0
 286.669 900.03 281 753.247 281 576 c 0
 281 245.079 321.432 39.6416 584 -26 c 0
 645.333 -41.333 719.333 -51.5 806 -56.5 c 0
 892.667 -61.5 1207.67 -64 1751 -64 c 1
 1751 -224 l 1
 1112 -224 l 2
 567.251 -224 159.324 -151.728 101.5 328 c 0
 92.5 402.667 88 485.333 88 576 c 0
 88 975.379 144.664 1215.47 448.5 1310.5 c 0
 631.327 1367.68 852.142 1376 1112 1376 c 0
 1493.73 1376 1849.04 1353.96 1993.5 1124.5 c 0
 2021.83 1079.5 2048 864.666 2072 480 c 1
 2072 224.854 2007.19 128 1751 128 c 0
 1611.95 128 1527 187.356 1527 320 c 1
 1463.32 182.443 1284.01 128 1077 128 c 0
 764.062 128 520.249 152.256 481.5 423.5 c 0
 475.167 467.833 472 518.666 472 575.998 c 0
 472 969.663 679.173 1024 1077 1024 c 0
 1251.71 1024 1409.93 979.856 1464 864 c 1
 1464 992 l 1
 1656 992 l 1
 1656 480 l 2
 1656 462.569 1655.74 445.771 1655.74 429.853 c 0
 1655.74 346.986 1662.84 288 1751 288 c 0
EndSplineSet
EndChar

StartChar: A
Encoding: 65 65 40
Width: 2191
GlyphClass: 2
Flags: W
HStem: 0 21G<72 306.909 1885.09 2120> 352 160<584 1608> 1408 128<968 1224>
DStem2: 72 0 296 0 0.503871 0.863779<112.867 513.661 700.237 700.237> 1224 1536 1096 1408 0.503871 -0.863779<46.0682 1078 1264.57 1264.57>
LayerCount: 2
Fore
SplineSet
1704 352 m 1
 488 352 l 1
 296 0 l 1
 72 0 l 1
 968 1536 l 1
 1224 1536 l 1
 2120 0 l 1
 1896 0 l 1
 1704 352 l 1
1608 512 m 1
 1096 1408 l 1
 584 512 l 1
 1608 512 l 1
EndSplineSet
EndChar

StartChar: B
Encoding: 66 66 41
Width: 2036
GlyphClass: 2
Flags: HW
HStem: 0 160<339 1643.07> 736.495 159.3<339 1584.77> 1376 160<339 1621.66>
VStem: 147 192<160 736 896 1376> 1683 192<988.874 1318.09> 1747 192<263.013 638.513>
LayerCount: 2
Fore
SplineSet
1619 832 m 1xf8
 1818.09 820.939 1939 692.919 1939 478 c 0xf4
 1939 65.0996 1715.46 0 1298 0 c 2
 147 0 l 1
 147 1536 l 1
 1428 1536 l 2
 1728.33 1536 1875 1467.33 1875 1174 c 0
 1875 982.681 1792 844.002 1619 832 c 1xf8
1234 160 m 2
 1276.67 160 1319.1 159.272 1360.21 159.272 c 0
 1552.18 159.272 1715.31 175.133 1740 355 c 0
 1744.67 389 1747 430 1747 478 c 0
 1747 719.096 1579.12 736.495 1352.92 736.495 c 0
 1314.77 736.495 1274.95 736 1234 736 c 2
 339 736 l 1
 339 160 l 1
 1234 160 l 2
1312.16 895.796 m 0
 1554.1 895.796 1683 922.274 1683 1174 c 0xf8
 1683 1369.13 1561.86 1376 1364 1376 c 2
 339 1376 l 1
 339 896 l 1
 1234 896 l 2
 1260.26 896 1286.43 895.796 1312.16 895.796 c 0
EndSplineSet
EndChar

StartChar: C
Encoding: 67 67 42
Width: 2072
GlyphClass: 2
Flags: W
HStem: -32 160<444.978 1624.01> 1408 160<443.465 1615.28>
VStem: 107.002 192<272.964 1265.86> 1770 192<264.617 512 1056 1265.3>
LayerCount: 2
Fore
SplineSet
1770 1056 m 1
 1770 1387.53 1592.04 1408 1259 1408 c 2
 810.002 1408 l 2
 548.16 1408 359.772 1406.91 317.002 1190 c 0
 301.002 1108.86 298.315 1020.45 298.315 922.983 c 0
 298.315 873.715 299.002 822.132 299.002 768 c 256
 299.002 699.456 296.53 629.598 296.53 562.643 c 0
 296.53 380.914 314.739 220.58 450.002 166 c 0
 543.896 128.112 663.665 128 807.416 128 c 2
 810.002 128 l 1
 1259 128 l 2
 1528.68 128 1734.7 131.957 1763 372.5 c 0
 1767.67 412.167 1770 458.667 1770 512 c 1
 1962 512 l 1
 1962 60.917 1714.76 -32 1259 -32 c 2
 810.002 -32 l 2
 347.174 -32 121.995 72.2344 110.002 520 c 0
 108.002 594.667 107.002 677.334 107.002 768 c 258
 107 792.617 l 2
 107 1107.46 109.598 1366.95 315.002 1481.5 c 0
 437.878 1550.03 603.756 1568 810.002 1568 c 2
 1259 1568 l 2
 1695.07 1568 1962 1492.39 1962 1056 c 1
 1770 1056 l 1
EndSplineSet
EndChar

StartChar: D
Encoding: 68 68 43
Width: 2117
GlyphClass: 2
Flags: HW
HStem: 0 160<339 1671.97> 1376 160<339 1674.06>
VStem: 147 192<160 1376> 1811.46 191.535<299.177 1232.41>
LayerCount: 2
Fore
SplineSet
1298 160 m 2
 1305.35 160 1312.65 159.997 1319.89 159.997 c 0
 1565.06 159.997 1747.77 162.918 1791.5 366.5 c 0
 1808.88 447.398 1811.46 536.807 1811.46 636.166 c 0
 1811.46 678.286 1811 722.193 1811 768 c 256
 1811 829.74 1812.89 891.963 1812.89 951.665 c 0
 1812.89 1131.57 1795.73 1288.59 1658 1340.5 c 0
 1565.19 1375.51 1449.04 1376 1310.21 1376 c 2
 1298 1376 l 1
 339 1376 l 1
 339 160 l 1
 1298 160 l 2
147 0 m 1
 147 1536 l 1
 1298 1536 l 2
 1752.89 1536 1985.26 1443.86 1999.5 1006.5 c 0
 2001.83 934.833 2003 855.333 2003 768 c 256
 2003 449.562 2002 194.556 1793.5 83 c 0
 1669.27 16.5352 1503.77 0 1298 0 c 2
 147 0 l 1
EndSplineSet
EndChar

StartChar: E
Encoding: 69 69 44
Width: 1773
GlyphClass: 2
Flags: W
HStem: 0 160<339 1683> 704 160<339 1619> 1376 160<339 1683>
VStem: 147 192<160 704 864 1376>
LayerCount: 2
Fore
SplineSet
147 0 m 1
 147 1536 l 1
 1683 1536 l 1
 1683 1376 l 1
 339 1376 l 1
 339 864 l 1
 1619 864 l 1
 1619 704 l 1
 339 704 l 1
 339 160 l 1
 1683 160 l 1
 1683 0 l 1
 147 0 l 1
EndSplineSet
EndChar

StartChar: F
Encoding: 70 70 45
Width: 1675
GlyphClass: 2
Flags: HW
HStem: 0 21G<147 339> 704 160<339 1555> 1376 160<339 1619>
VStem: 147 192<0 704 864 1376>
LayerCount: 2
Fore
SplineSet
147 0 m 1
 147 1536 l 1
 1619 1536 l 1
 1619 1376 l 1
 339 1376 l 1
 339 864 l 1
 1555 864 l 1
 1555 704 l 1
 339 704 l 1
 339 0 l 1
 147 0 l 1
EndSplineSet
EndChar

StartChar: G
Encoding: 71 71 46
Width: 2145
GlyphClass: 2
Flags: W
HStem: -32 160<444.978 1690.01> 608 160<1066 1836> 1408 160<443.465 1680.55>
VStem: 107.002 192<272.964 1265.86> 1836 192<264.617 608 1056 1265.35>
LayerCount: 2
Fore
SplineSet
1836 1056 m 1
 1836 1387.9 1657.38 1408 1324 1408 c 2
 810.002 1408 l 2
 548.16 1408 359.772 1406.91 317.002 1190 c 0
 301.002 1108.86 298.315 1020.45 298.315 922.983 c 0
 298.315 873.715 299.002 822.132 299.002 768 c 256
 299.002 699.456 296.53 629.598 296.53 562.643 c 0
 296.53 380.914 314.739 220.58 450.002 166 c 0
 543.896 128.112 663.665 128 807.416 128 c 2
 810.002 128 l 1
 1325 128 l 2
 1594.68 128 1800.7 131.957 1829 372.5 c 0
 1833.67 412.167 1836 458.667 1836 512 c 2
 1836 608 l 1
 1066 608 l 1
 1066 768 l 1
 2028 768 l 1
 2028 512 l 2
 2028 60.917 1780.76 -32 1325 -32 c 2
 810.002 -32 l 2
 347.174 -32 121.995 72.2344 110.002 520 c 0
 108.002 594.667 107.002 677.334 107.002 768 c 258
 107 792.617 l 2
 107 1107.46 109.598 1366.95 315.002 1481.5 c 0
 437.878 1550.03 603.756 1568 810.002 1568 c 2
 1324 1568 l 2
 1760.15 1568 2028 1492.52 2028 1056 c 1
 1836 1056 l 1
EndSplineSet
EndChar

StartChar: H
Encoding: 72 72 47
Width: 2192
GlyphClass: 2
Flags: W
HStem: 0 21G<200 392 1800 1992> 704 160<392 1800> 1516 20G<200 392 1800 1992>
VStem: 200 192<0 704 864 1536> 1800 192<0 704 864 1536>
LayerCount: 2
Fore
SplineSet
1800 1536 m 1
 1992 1536 l 1
 1992 0 l 1
 1800 0 l 1
 1800 704 l 1
 392 704 l 1
 392 0 l 1
 200 0 l 1
 200 1536 l 1
 392 1536 l 1
 392 864 l 1
 1800 864 l 1
 1800 1536 l 1
EndSplineSet
EndChar

StartChar: J
Encoding: 74 74 49
Width: 1632
GlyphClass: 2
Flags: HW
HStem: 0 156<365.923 1202.47> 1516 20G<1309 1501>
VStem: 93 192<240.902 576> 1309 192<258.394 1536>
LayerCount: 2
Fore
SplineSet
1501 448 m 2
 1501 105.635 1334.21 0 989 0 c 2
 541 0 l 2
 285.977 0 143.984 55.7227 109 270 c 0
 98.333 335.333 93 416 93 512 c 2
 93 576 l 1
 285 576 l 1
 285 512 l 2
 285 271.07 304.301 156 541 156 c 2
 989 156 l 2
 1212.78 156 1309 226.781 1309 448 c 2
 1309 1536 l 1
 1501 1536 l 1
 1501 448 l 2
EndSplineSet
EndChar

StartChar: K
Encoding: 75 75 50
Width: 1918
GlyphClass: 2
Flags: W
HStem: 0 21G<147 339 1594.17 1907> 704 160<339 745> 1516 20G<147 339 1561.94 1875>
VStem: 147 192<0 704 864 1536> 1587 288<1248 1536> 1619 288<0 288>
DStem2: 745 864 937 784 0.780219 0.625506<99.7616 1077.28> 937 784 745 704 0.77773 -0.628598<0 1023.23>
LayerCount: 2
Fore
SplineSet
1587 1536 m 1xf8
 1875 1536 l 1xf8
 937 784 l 1
 1907 0 l 1
 1619 0 l 1xf4
 745 704 l 1
 339 704 l 1
 339 0 l 1
 147 0 l 1
 147 1536 l 1
 339 1536 l 1
 339 864 l 1
 745 864 l 1
 1587 1536 l 1xf8
EndSplineSet
EndChar

StartChar: L
Encoding: 76 76 51
Width: 1601
GlyphClass: 2
Flags: W
HStem: 0 160<339 1555> 1516 20G<147 339>
VStem: 147 192<160 1536>
LayerCount: 2
Fore
SplineSet
147 0 m 1
 147 1536 l 1
 339 1536 l 1
 339 160 l 1
 1555 160 l 1
 1555 0 l 1
 147 0 l 1
EndSplineSet
EndChar

StartChar: M
Encoding: 77 77 52
Width: 2816
GlyphClass: 2
Flags: W
HStem: 0 192<1318 1512> 1516 20G<200 533.318 2296.68 2616>
VStem: 200 192<0 1408> 2424 192<0 1387>
DStem2: 520 1536 392 1408 0.549486 -0.835503<36.6102 1614.71> 1415 192 1512 0 0.549406 0.835555<0 1552.84>
LayerCount: 2
Fore
SplineSet
392 1408 m 1
 392 0 l 1
 200 0 l 1
 200 1536 l 1
 520 1536 l 1
 1415 192 l 1
 2310 1536 l 1
 2616 1536 l 1
 2616 0 l 1
 2424 0 l 1
 2424 1387 l 1
 1512 0 l 1
 1318 0 l 1
 392 1408 l 1
EndSplineSet
EndChar

StartChar: N
Encoding: 78 78 53
Width: 2337
GlyphClass: 2
Flags: W
HStem: 0 21G<200 392 1859.36 2137> 1516 20G<200 524.458 1945 2137>
VStem: 200 192<0 1376> 1945 192<192 1536>
DStem2: 503 1536 392 1376 0.734425 -0.67869<27.0692 1971.2>
LayerCount: 2
Fore
SplineSet
392 0 m 1
 200 0 l 1
 200 1536 l 1
 503 1536 l 5
 1945 192 l 1
 1945 1536 l 1
 2137 1536 l 1
 2137 0 l 1
 1881 0 l 1
 392 1376 l 1
 392 0 l 1
EndSplineSet
EndChar

StartChar: O
Encoding: 79 79 54
Width: 2241
GlyphClass: 2
Flags: W
HStem: -32 160<525.913 831 1410 1717.95> 1408 160<541.937 831 1410 1708.13>
VStem: 128 192<334.71 1193.72> 1921 192.028<329.454 1190.77>
LayerCount: 2
Fore
SplineSet
831 -32 m 2
 1410 -32 l 1
 2010.8 -34.1477 2115.32 183.002 2113.03 778.992 c 1
 2113.03 1374.67 2006.37 1568 1410 1568 c 2
 831 1568 l 1
 227.823 1570.37 125.619 1365.49 128 762 c 1
 128 174 237 -32 831 -32 c 2
826 1408 m 2
 1415 1408 l 2
 1892 1408 1921 1224 1921 762 c 256
 1921 288 1892 128 1410 128 c 2
 831 128 l 2
 349 128 320 288 320 762 c 256
 320 1224 349 1408 826 1408 c 2
EndSplineSet
EndChar

StartChar: P
Encoding: 80 80 55
Width: 1969
GlyphClass: 2
Flags: HW
HStem: 0 21G<147 339> 608 160<339 1596.31> 1376 160<339 1603.72>
VStem: 147 192<0 608 768 1376> 1683 192<850.129 1300.34>
LayerCount: 2
Fore
SplineSet
147 1536 m 1
 1301 1536 l 2
 1611.25 1536 1860.69 1517.88 1872.5 1225 c 0
 1874.17 1183.67 1875 1138 1875 1088 c 0
 1875 750.79 1775.16 657.86 1466.5 622 c 0
 1386.17 612.667 1287.33 608 1170 608 c 2
 339 608 l 1
 339 0 l 1
 147 0 l 1
 147 1536 l 1
339 768 m 1
 1170 768 l 2
 1227.6 768 1286.21 765.865 1342.21 765.865 c 0
 1520.11 765.865 1671.58 787.42 1680.5 967.5 c 0
 1682.17 1001.17 1683 1041.33 1683 1088 c 0
 1683 1254.31 1674.8 1332.83 1530 1359.5 c 0
 1448.91 1374.44 1362.49 1376.15 1262.84 1376.15 c 0
 1233.14 1376.15 1202.26 1376 1170 1376 c 2
 339 1376 l 1
 339 768 l 1
EndSplineSet
EndChar

StartChar: Q
Encoding: 81 81 56
Width: 2248
GlyphClass: 2
Flags: HW
HStem: -32 160<444.039 810.002 1388 1756.23> 1408 160<444.978 810.002 1388 1753.89>
VStem: 107 191.553<274.246 743.383 979.055 1263.04> 1899.18 191.872<428.864 699.173 779.826 1261.61>
DStem2: 1306 800 1225 671 0.841879 -0.539666<1.42472 695.414 929.305 1065.17>
LayerCount: 2
Fore
SplineSet
2064 319 m 0
 2089.29 431.52 2091.05 559.312 2091.05 699.173 c 0
 2091.05 721.804 2091 744.751 2091 768 c 258
 2091 779.826 l 2
 2091 1099.37 2089.74 1366.2 1883 1481.5 c 0
 1760.13 1550.03 1594.25 1568 1388 1568 c 2
 810.002 1568 l 2
 347.174 1568 121.995 1463.77 110.002 1016 c 0
 108.002 941.333 107.002 858.667 107.002 768 c 258
 107 743.383 l 2
 107 428.543 109.598 169.053 315.002 54.5 c 0
 437.878 -14.0273 603.756 -32 810.002 -32 c 2
 1388 -32 l 2
 1666.98 -32 1898.92 0.449219 2003 164 c 0
 2004.33 166 2005.33 168 2006 170 c 1
 2122 96 l 1
 2202 224 l 1
 2063 313 l 1
 2063.67 315 2064 317 2064 319 c 0
1855 267 m 1
 1792.71 128.562 1602.6 128 1393.14 128 c 2
 1388 128 l 1
 810.002 128 l 2
 547.921 128 360.848 128.709 318.002 346 c 0
 301.067 431.881 298.554 525.854 298.554 630.158 c 0
 298.554 674.207 299.002 720.098 299.002 768 c 256
 299.002 838.668 296.279 910.505 296.279 979.055 c 0
 296.279 1158.54 314.942 1315.5 450.002 1370 c 0
 543.896 1407.89 663.664 1408 807.415 1408 c 2
 1388 1408 l 2
 1649.72 1408 1837.25 1406.79 1880 1190 c 0
 1896.94 1104.12 1899.45 1010.15 1899.45 905.844 c 0
 1899.45 861.794 1899 815.902 1899 768 c 256
 1899 728.026 1899.18 691.691 1899.18 657.512 c 0
 1899.18 574.011 1898.14 503.379 1891 424 c 1
 1306 800 l 1
 1225 671 l 1
 1855 267 l 1
EndSplineSet
EndChar

StartChar: R
Encoding: 82 82 57
Width: 2046
GlyphClass: 2
Flags: W
HStem: 0 21G<147 339 1715 1907> 608 160<339 1626.14> 1376 160<339 1671.46>
VStem: 147 192<0 608 768 1376> 1715 192<0 528.294> 1747 192<850.129 1303.35>
LayerCount: 2
Fore
SplineSet
1662 672 m 1xf4
 1862.18 641.974 1907 517.01 1907 288 c 2
 1907 0 l 1
 1715 0 l 1
 1715 288 l 2xf8
 1715 461.719 1709.42 555.964 1562 587 c 0
 1465.75 607.264 1359.99 608.005 1232.56 608.005 c 2
 1202 608 l 1
 339 608 l 1
 339 0 l 1
 147 0 l 1
 147 1536 l 1
 1234 1536 l 1
 1268.3 1536.01 l 2
 1599.06 1536.01 1918.23 1530.9 1935.5 1225 c 0
 1937.83 1183.67 1939 1138 1939 1088 c 0
 1939 842.599 1875.09 703.963 1662 672 c 1xf4
339 768 m 1
 1234 768 l 2
 1291.61 768 1350.21 765.865 1406.21 765.865 c 0
 1584.11 765.865 1735.59 787.42 1744.5 967.5 c 0
 1746.17 1001.17 1747 1041.33 1747 1088 c 0xf4
 1747 1254.31 1738.8 1332.83 1594 1359.5 c 0
 1512.91 1374.44 1426.49 1376.15 1326.84 1376.15 c 0
 1297.14 1376.15 1266.26 1376 1234 1376 c 2
 339 1376 l 1
 339 768 l 1
EndSplineSet
EndChar

StartChar: S
Encoding: 83 83 58
Width: 1938
GlyphClass: 2
Flags: HW
HStem: -36 164<409.735 1469.76> 704 160<428.284 1508.51> 1152 21G<1636 1828> 1408.11 159.888<464.766 1518.19>
VStem: 100 192<229.089 384 975.963 1279.83> 1636 192<268.413 592.813 1152 1308.95>
LayerCount: 2
Fore
SplineSet
932 1408 m 2
 904.456 1408 876.772 1408.11 849.19 1408.11 c 0
 565.233 1408.11 292 1396.24 292 1128 c 0
 292 879.852 509.011 863.633 755.463 863.633 c 0
 792.522 863.633 830.247 864 868 864 c 2
 1132 864 l 2
 1466.85 864 1784.19 844.455 1820.5 554 c 0
 1825.5 514 1828 470.667 1828 424 c 256
 1828 14.5771 1475.95 -36 1060 -36 c 2
 804 -36 l 2
 412.987 -36 101 -5.31348 101 384 c 1
 293 384 l 1
 293 141.955 473.707 127.749 707.985 127.749 c 0
 739.143 127.749 771.247 128 804 128 c 2
 1060 128 l 2
 1358.32 128 1636 138.377 1636 424 c 256
 1636 702.687 1420.16 704 1132 704 c 2
 868 704 l 2
 521.523 704 149.149 707.737 108 1003.5 c 0
 102.667 1041.83 100 1083.33 100 1128 c 0
 100 1546.86 505.592 1568 932 1568 c 2
 1124 1568 l 2
 1514.13 1568 1828 1540.52 1828 1152 c 1
 1636 1152 l 1
 1636 1393.89 1455.32 1408.26 1221.3 1408.26 c 0
 1189.73 1408.26 1157.2 1408 1124 1408 c 2
 932 1408 l 2
EndSplineSet
EndChar

StartChar: T
Encoding: 84 84 59
Width: 1971
GlyphClass: 2
Flags: W
HStem: 0 21G<888 1080> 1376 160<120 888 1080 1848>
VStem: 888 192<0 1376>
LayerCount: 2
Fore
SplineSet
1848 1536 m 1
 1848 1376 l 1
 1080 1376 l 1
 1080 0 l 1
 888 0 l 1
 888 1376 l 1
 120 1376 l 1
 120 1536 l 1
 1848 1536 l 1
EndSplineSet
EndChar

StartChar: U
Encoding: 85 85 60
Width: 2209
GlyphClass: 2
Flags: HW
HStem: -32 160<512.976 1693.83> 1516 20G<175 367 1838 2031>
VStem: 175 192<272.964 1536> 1839.73 191.271<274.578 1536>
LayerCount: 2
Fore
SplineSet
2031 1536 m 1
 2031 768 l 1
 2031 756.178 l 2
 2031 436.635 2029.74 169.799 1823 54.5 c 0
 1700.12 -14.0273 1534.25 -32 1328 -32 c 2
 878 -32 l 2
 415.172 -32 189.994 72.2344 178 520 c 0
 176 594.667 175 677.334 175 768 c 2
 175 1536 l 1
 367 1536 l 1
 367 768 l 2
 367 699.455 364.528 629.595 364.528 562.64 c 0
 364.528 380.913 382.737 220.58 518 166 c 0
 611.895 128.112 731.663 128 875.414 128 c 2
 878 128 l 1
 1328 128 l 2
 1590.44 128 1776.36 129.864 1820.5 346 c 0
 1836.95 426.526 1839.73 514.542 1839.73 611.609 c 0
 1839.73 661.298 1839 713.358 1839 768 c 2
 1838 1536 l 1
 2031 1536 l 1
EndSplineSet
EndChar

StartChar: V
Encoding: 86 86 61
Width: 2105
GlyphClass: 2
Flags: W
HStem: 0 128<924 1180> 1516 20G<92 326.455 1777.55 2012>
DStem2: 316 1536 92 1536 0.476283 -0.879292<0 1588.59> 1052 128 1180 0 0.476283 0.879292<0 1588.59>
LayerCount: 2
Fore
SplineSet
1788 1536 m 1
 2012 1536 l 1
 1180 0 l 1
 924 0 l 1
 92 1536 l 1
 316 1536 l 1
 1052 128 l 1
 1788 1536 l 1
EndSplineSet
EndChar

StartChar: W
Encoding: 87 87 62
Width: 3386
GlyphClass: 2
Flags: W
HStem: 0 21G<850 1125.05 2322.95 2597.17> 1344 192<1612 1836>
DStem2: 316 1536 92 1536 0.447214 -0.894427<0 1531.26> 988 160 1116 0 0.413005 0.910729<0 1382.27> 1836 1536 1724 1344 0.413005 -0.910729<128.603 1510.88> 2460 160 2588 0 0.416655 0.909065<0 1504.2>
LayerCount: 2
Fore
SplineSet
1612 1536 m 1
 1836 1536 l 1
 2460 160 l 1
 3068 1536 l 1
 3292 1536 l 1
 2588 0 l 1
 2332 0 l 1
 1724 1344 l 1
 1116 0 l 1
 860 0 l 1
 92 1536 l 1
 316 1536 l 1
 988 160 l 1
 1612 1536 l 1
EndSplineSet
EndChar

StartChar: X
Encoding: 88 88 63
Width: 2179
GlyphClass: 2
Flags: HW
HStem: 0 21G<67 360.545 1820.7 2115> 1516 20G<131 425.259 1700.44 1994>
VStem: 67 272<0 272> 131 272<1264 1536> 1722 272<1264 1536> 1843 272<0 272>
DStem2: 67 0 339 0 0.732967 0.680264<199.367 1190.89 1390.26 2257.95> 403 1536 131 1536 0.744331 -0.667811<0 884.536 1086.99 2097.59>
LayerCount: 2
Fore
SplineSet
1212 810 m 1xd8
 2115 0 l 1
 1843 0 l 1
 1078 686 l 1
 339 0 l 1
 67 0 l 1xe4
 940 810 l 1
 131 1536 l 1
 403 1536 l 1
 1073 934 l 1
 1722 1536 l 1
 1994 1536 l 1
 1212 810 l 1xd8
EndSplineSet
EndChar

StartChar: Y
Encoding: 89 89 64
Width: 2094
GlyphClass: 2
Flags: HW
HStem: 0 784<559 1535> 1516 20G<87 361.723 1732.28 2007>
VStem: 87 256<1280 1536> 951 192<0 640> 1751 256<1280 1536>
DStem2: 343 1536 87 1536 0.694136 -0.719844<0 1029.99> 1047 784 1143 640 0.694136 0.719844<0 1029.99>
CounterMasks: 1 38
LayerCount: 2
Fore
SplineSet
87 1536 m 1
 343 1536 l 1
 1047 784 l 1
 1751 1536 l 1
 2007 1536 l 1
 1143 640 l 1
 1143 0 l 1
 951 0 l 1
 951 640 l 1
 87 1536 l 1
EndSplineSet
EndChar

StartChar: Z
Encoding: 90 90 65
Width: 1917
GlyphClass: 2
Flags: HW
HStem: 0 160<337 1863> 1376 160<135 1557>
DStem2: 71 160 337 160 0.775574 0.631257<206.303 1920.11>
LayerCount: 2
Fore
SplineSet
71 0 m 1
 71 160 l 1
 1557 1376 l 1
 135 1376 l 1
 135 1536 l 1
 1831 1536 l 1
 1831 1376 l 1
 337 160 l 1
 1863 160 l 1
 1863 0 l 1
 71 0 l 1
EndSplineSet
EndChar

StartChar: bracketleft
Encoding: 91 91 66
Width: 785
GlyphClass: 2
Flags: HW
HStem: 0 160<341 725> 1376 160<341 725>
VStem: 149 192<160 1376>
LayerCount: 2
Fore
SplineSet
149 1536 m 1
 725 1536 l 1
 725 1376 l 1
 341 1376 l 1
 341 160 l 1
 725 160 l 1
 725 0 l 1
 149 0 l 1
 149 1536 l 1
EndSplineSet
EndChar

StartChar: backslash
Encoding: 92 92 67
Width: 944
GlyphClass: 2
Flags: HW
HStem: 0 21G<727.833 929> 1516 20G<33 234.167>
DStem2: 225 1536 33 1536 0.416655 -0.909065<0 1609.65>
LayerCount: 2
Fore
SplineSet
929 0 m 1
 737 0 l 1
 33 1536 l 1
 225 1536 l 1
 929 0 l 1
EndSplineSet
EndChar

StartChar: bracketright
Encoding: 93 93 68
Width: 792
GlyphClass: 2
Flags: HW
HStem: 0 160<71 455> 1376 160<71 455>
VStem: 455 192<160 1376>
LayerCount: 2
Fore
SplineSet
647 0 m 1
 71 0 l 1
 71 160 l 1
 455 160 l 1
 455 1376 l 1
 71 1376 l 1
 71 1536 l 1
 647 1536 l 1
 647 0 l 1
EndSplineSet
EndChar

StartChar: asciicircum
Encoding: 94 94 69
Width: 1081
GlyphClass: 2
Flags: HW
HStem: 1408 128<445 637>
DStem2: 61 992 189 896 0.576683 0.816968<0 616.667> 637 1536 541 1408 0.576683 -0.816968<49.2103 665.877>
LayerCount: 2
Fore
SplineSet
541 1408 m 1
 189 896 l 1
 61 992 l 1
 445 1536 l 1
 637 1536 l 1
 1021 992 l 1
 893 896 l 1
 541 1408 l 1
EndSplineSet
EndChar

StartChar: underscore
Encoding: 95 95 70
Width: 1360
GlyphClass: 2
Flags: HW
HStem: -160 160<135 1223>
LayerCount: 2
Fore
SplineSet
135 0 m 1
 1223 0 l 1
 1223 -160 l 1
 135 -160 l 1
 135 0 l 1
EndSplineSet
EndChar

StartChar: grave
Encoding: 96 96 71
Width: 832
GlyphClass: 2
Flags: HW
HStem: 1280 576
LayerCount: 2
Fore
SplineSet
40 1664 m 1
 168 1856 l 1
 744 1376 l 1
 680 1280 l 1
 40 1664 l 1
EndSplineSet
EndChar

StartChar: a
Encoding: 97 97 72
Width: 1558
GlyphClass: 2
Flags: W
HStem: -24 151.755<397.899 1088.64> 0 21G<1241 1433> 496 163<395.311 1141.77> 1024 160<407.365 1080.15>
VStem: 139 192<192.678 436.738 852 955.449> 1241 192<0 158 210.886 429.342 544 870.467>
LayerCount: 2
Fore
SplineSet
153 852 m 1xbc
 153 1166.49 467.627 1184 795 1184 c 0
 1267.99 1184 1433 1041.19 1433 625 c 2
 1433 0 l 1
 1241 0 l 1x7c
 1241 158 l 1
 1205.2 8.7741 964.398 -24 766 -24 c 0
 464.554 -24 139 -5.44531 139 293 c 0
 139.001 646.861 430.085 659 766 659 c 0
 958.948 659 1162.96 650.342 1241 544 c 1
 1240.01 657 l 2
 1237.63 928.979 1128.28 1024 795 1024 c 0
 481 1024 345 1023 345 852 c 1
 153 852 l 1xbc
1241 320 m 256
 1241 493 1058.68 496 766 496 c 258
 756.524 496 l 2
 478.472 496 331 495.022 331 320 c 256
 331 131 478 127.755 766 127.755 c 0xbc
 968.745 127.755 1241 120.119 1241 320 c 256
EndSplineSet
EndChar

StartChar: b
Encoding: 98 98 73
Width: 1655
GlyphClass: 2
Flags: HW
HStem: -22 150<503.291 1203.23> 0 21G<147 339> 1023 161<508.872 1201.82> 1516 20G<147 339>
VStem: 147 192<0 177 293.13 857.913 1043 1536> 1363 192<279.329 869.135>
LayerCount: 2
Fore
SplineSet
1555 574 m 0x7c
 1555 99.6533 1326.33 -22 851 -22 c 0xbc
 662.882 -22 453.741 -3.59961 384 104.5 c 0
 364 135.5 349 159.667 339 177 c 1
 339 0 l 1
 147 0 l 1
 147 1536 l 1
 339 1536 l 1
 339 1043 l 1
 414.406 1164.81 639.593 1184 851 1184 c 0
 1330.88 1184 1555 1053.22 1555 574 c 0x7c
851.001 128 m 0
 1141.03 128 1331.76 145.951 1356.5 410.5 c 0
 1360.83 456.833 1363 511.333 1363 574 c 256
 1363 864.089 1313.45 992.9 1044.5 1016 c 0
 990.167 1020.67 925.667 1023 851 1023 c 0
 563.415 1023 389.319 997.805 350.5 748 c 0
 342.833 698.667 339 639.667 339 571 c 0
 339 281.522 407.029 148.878 680 132.5 c 0
 730 129.5 787.001 128 851.001 128 c 0
EndSplineSet
EndChar

StartChar: c
Encoding: 99 99 74
Width: 1543
GlyphClass: 2
Flags: HW
HStem: -22 149.979<436.247 1153> 1025.02 159.979<429.229 1151.49>
VStem: 95 193<255.403 888.749> 1248 192<212.747 384 789 934.379>
LayerCount: 2
Fore
SplineSet
1440 384 m 1
 1440 23.7217 1171.66 -22 800 -22 c 0
 413.87 -22 152.404 29.8604 107 368.5 c 0
 99 428.167 95 496.667 95 574 c 0
 95 961.171 197.643 1134.07 548 1173 c 0
 620 1181 704 1185 800 1185 c 0
 1168.23 1185 1440 1146.79 1440 789 c 1
 1248 789 l 1
 1248 1018.72 1068.2 1025.02 840.171 1025.02 c 0
 826.935 1025.02 813.536 1025 800 1025 c 0
 501.943 1025 301.085 1015.3 290.5 729.5 c 0
 288.833 684.5 288 632.667 288 574 c 0
 288 368.75 287.596 223.148 440 167 c 0
 536.021 131.624 655.421 128 800 128 c 0
 812.079 128 824.251 127.979 836.463 127.979 c 0
 1031.06 127.979 1236.07 133.186 1246 309.5 c 0
 1247.33 332.5 1248 357.333 1248 384 c 1
 1440 384 l 1
EndSplineSet
EndChar

StartChar: d
Encoding: 100 100 75
Width: 1643
GlyphClass: 2
Flags: W
HStem: -22 150<444.141 1102.6> 0 21G<1306 1498> 1024 160<447.17 1141.64> 1516 20G<1306 1498>
VStem: 90 192<281.598 872.844> 1306 192<0 171 288.179 854.671 1044 1536>
LayerCount: 2
Fore
SplineSet
794 1184 m 0xbc
 1007.54 1184 1226.13 1163.93 1306 1044 c 1
 1306 1536 l 1
 1498 1536 l 1
 1498 0 l 1
 1306 0 l 1x7c
 1306 171 l 1
 1258 114 l 1
 1159.23 17.5771 1000.77 -22 794 -22 c 0
 318.678 -22 90 99.6338 90 574 c 0
 90 1056.08 309.715 1184 794 1184 c 0xbc
794 128 m 0xbc
 1078.85 128 1255.36 149.755 1294.5 396.5 c 0
 1302.17 444.833 1306 503 1306 571 c 0
 1306 864.082 1242.62 1005.19 965 1020 c 0
 915 1022.67 858 1024 794 1024 c 0
 502.593 1024 313.054 1005.81 288.5 739.5 c 0
 284.167 692.5 282 637.333 282 574 c 0
 282 283.927 331.392 158.113 600.5 135 c 0
 654.833 130.333 719.333 128 794 128 c 0xbc
EndSplineSet
EndChar

StartChar: e
Encoding: 101 101 76
Width: 1542
GlyphClass: 2
Flags: W
HStem: -22 150<441.935 1156.66> 528 128<283 1243>
VStem: 91 192<275.544 528 656 812.223> 1243 192<201.687 320>
LayerCount: 2
Fore
SplineSet
283 528 m 1
 258.871 180.987 452.626 111.904 795 128 c 1
 1008.45 128.139 1244.52 110.849 1243 320 c 1
 1435 320 l 1
 1435 -0.720703 1128.18 -22 795 -22 c 0
 332.227 -22 91 83.6035 91 544 c 0
 91 1039.18 298.103 1184 795 1184 c 0
 1232.89 1184 1435 1029.43 1435 592 c 1
 1419 528 l 1
 283 528 l 1
1243 656 m 1
 1342.63 1142.29 283 1196.51 283 656 c 5
 1243 656 l 1
EndSplineSet
EndChar

StartChar: f
Encoding: 102 102 77
Width: 1044
GlyphClass: 2
Flags: HWO
HStem: 0 21G<234 426> 1006 146<42 234 426 970> 1408 160<489.599 970>
VStem: 234 192<0 1006 1152 1343.96>
LayerCount: 2
Fore
SplineSet
234 1162 m 2
 234 1496.7 409.495 1568 747 1568 c 2
 970 1568 l 1
 970 1408 l 1
 746 1408 l 2
 519.561 1408 426 1398.95 426 1162 c 2
 426 1152 l 1
 970 1152 l 1
 970 1006 l 1
 426 1006 l 1
 426 0 l 1
 234 0 l 1
 234 1006 l 1
 42 1006 l 1
 42 1152 l 1
 234 1152 l 1
 234 1162 l 2
EndSplineSet
EndChar

StartChar: g
Encoding: 103 103 78
Width: 1635
GlyphClass: 2
Flags: W
HStem: -421 158.629<396.928 1150.45> -32 160<444.28 1138.26> 1024 160<448.17 1144.07> 1132 20G<1307 1499>
VStem: 91 192<287.26 872.844> 155 192<-206.41 -133> 1307 192<-112.673 128 290.373 857.758 1045 1152>
LayerCount: 2
Fore
SplineSet
795 1024 m 0xea
 503.593 1024 314.054 1005.81 289.5 739.5 c 0
 285.167 692.5 283 637.333 283 574 c 0
 283 283.927 332.392 158.113 601.5 135 c 0
 655.833 130.333 720.333 128 795 128 c 0
 1081.11 128 1256.64 151.141 1295.5 399.5 c 0
 1303.17 448.5 1307 507.667 1307 577 c 256
 1307 868.29 1242.14 1005.27 966 1020 c 0
 916 1022.67 859 1024 795 1024 c 0xea
795 1184 m 0
 1009.75 1184 1224.26 1163.33 1307 1045 c 1
 1307 1152 l 1
 1499 1152 l 1
 1499 160 l 2
 1499 -305.567 1263.2 -421 795 -421 c 2
 788.586 -421 l 2
 487.369 -421 155 -419.988 155 -133 c 1
 347 -133 l 1xd6
 347 -248.539 507.124 -262.371 659.117 -262.371 c 0
 706.967 -262.371 754.012 -261 795 -261 c 0
 1035.41 -261 1222.88 -259.581 1281 -83 c 0
 1298.33 -30.333 1307 40 1307 128 c 1
 1230.43 -3.26172 1016.66 -32 795 -32 c 0
 315.729 -32 91 94.4209 91 574 c 0
 91 1056.08 310.715 1184 795 1184 c 0
EndSplineSet
EndChar

StartChar: h
Encoding: 104 104 79
Width: 1617
GlyphClass: 2
Flags: HW
HStem: 0 21G<147 339 1299 1491.03> 1024 160<554.063 1150.47> 1516 20G<147 339>
VStem: 147 192<0 875.261 970 1536> 1299 192<0 882.355>
LayerCount: 2
Fore
SplineSet
339 970 m 1
 413.491 1145.05 667.621 1184 915 1184 c 0
 1329.28 1184 1492 1066.62 1492 650 c 2
 1491 0 l 1
 1299 0 l 1
 1299 650 l 2
 1299 962.06 1168.73 1024 851 1024 c 0
 570.561 1024 339 981.433 339 714 c 2
 339 0 l 1
 147 0 l 1
 147 1536 l 1
 339 1536 l 1
 339 970 l 1
EndSplineSet
EndChar

StartChar: i
Encoding: 105 105 80
Width: 596
GlyphClass: 2
Flags: W
HStem: 0 21G<202 394> 1132 20G<202 394> 1344 192<202 394>
VStem: 202 192<0 1152 1344 1536>
LayerCount: 2
Fore
SplineSet
202 1152 m 1
 394 1152 l 1
 394 0 l 1
 202 0 l 1
 202 1152 l 1
394 1344 m 1
 202 1344 l 1
 202 1536 l 1
 394 1536 l 1
 394 1344 l 1
EndSplineSet
EndChar

StartChar: j
Encoding: 106 106 81
Width: 484
GlyphClass: 2
Flags: HW
HStem: -384 160<-15 111.717> 1132 20G<145 337> 1344 192<145 337>
VStem: 145 192<-193.731 1152 1344 1536>
LayerCount: 2
Fore
SplineSet
-15 -224 m 1
 108.419 -224 145 -187.425 145 -64 c 2
 145 1152 l 1
 337 1152 l 1
 337 -64 l 2
 337 -310.758 238.767 -384 -15 -384 c 1
 -15 -224 l 1
337 1344 m 1
 145 1344 l 1
 145 1536 l 1
 337 1536 l 1
 337 1344 l 1
EndSplineSet
EndChar

StartChar: k
Encoding: 107 107 82
Width: 1441
GlyphClass: 2
Flags: HW
HStem: 0 21G<147 339 1112.33 1427> 552 144<339 403> 1132 20G<1076.12 1395> 1516 20G<147 339>
VStem: 147 192<0 552 696 1536> 1107 288<864 1152> 1139 288<0 288>
DStem2: 403 696 579 616 0.835813 0.549014<103.182 838.763> 579 616 403 552 0.809066 -0.587718<0 815.111>
LayerCount: 2
Fore
SplineSet
147 1536 m 1xfa
 339 1536 l 1
 339 696 l 1
 403 696 l 1
 1107 1152 l 1
 1395 1152 l 1xfc
 579 616 l 1
 1427 0 l 1
 1139 0 l 1
 403 552 l 1
 339 552 l 1
 339 0 l 1
 147 0 l 1
 147 1536 l 1xfa
EndSplineSet
EndChar

StartChar: l
Encoding: 108 108 83
Width: 592
GlyphClass: 2
Flags: W
HStem: 0 21G<200 392> 1516 20G<200 392>
VStem: 200 192<0 1536>
LayerCount: 2
Fore
SplineSet
200 1536 m 1
 392 1536 l 1
 392 0 l 1
 200 0 l 1
 200 1536 l 1
EndSplineSet
EndChar

StartChar: m
Encoding: 109 109 84
Width: 2505
GlyphClass: 2
Flags: W
HStem: 0 21G<137 329 1161 1353 2185 2377> 1024 160<529.436 1030.01 1545.45 2054.62> 1132 20G<137 329>
VStem: 137 192<0 883.836 970 1152> 1161 192<0 881.802> 2185 192<0 886.708>
CounterMasks: 1 1c
LayerCount: 2
Fore
SplineSet
1801 1024 m 0xdc
 1539.08 1024 1353 966.51 1353 714 c 2
 1353 0 l 1
 1161 0 l 1
 1161 650 l 2
 1161 941.822 1070.51 1024 777 1024 c 0xdc
 515.084 1024 329 966.51 329 714 c 2
 329 0 l 1
 137 0 l 1
 137 1152 l 1
 329 1152 l 1xbc
 329 970 l 1
 382.239 1129.72 616.936 1184 841 1184 c 0
 1077.07 1184 1245.69 1137.46 1313 974 c 1
 1406.13 1121.92 1611.26 1184 1865 1184 c 0
 2256.84 1184 2377 1044.16 2377 650 c 2
 2377 0 l 1
 2185 0 l 1
 2185 650 l 2
 2185 941.822 2094.51 1024 1801 1024 c 0xdc
EndSplineSet
EndChar

StartChar: n
Encoding: 110 110 85
Width: 1608
GlyphClass: 2
Flags: W
HStem: 0 21G<137 329 1289 1481.03> 1024 160<562.69 1130.61> 1132 20G<137 329>
VStem: 137 192<0 877.107 960 1152> 1289 192<0 874.995>
LayerCount: 2
Fore
SplineSet
329 960 m 1xb8
 404.586 1136.38 655.545 1184 905 1184 c 0
 1322.7 1184 1482 1060.16 1482 640 c 2
 1481 0 l 1
 1289 0 l 1
 1289 640 l 2
 1289 956.84 1163.13 1024 841 1024 c 0xd8
 555.495 1024 329 977.1 329 704 c 2
 329 0 l 1
 137 0 l 1
 137 1152 l 1
 329 1152 l 1
 329 960 l 1xb8
EndSplineSet
EndChar

StartChar: o
Encoding: 111 111 86
Width: 1614
GlyphClass: 2
Flags: W
HStem: -22 150<475.651 1135.8> 1024 160<474.454 1140.41>
VStem: 103 192<299.714 851.529> 1319 192<305.41 851.073>
LayerCount: 2
Fore
SplineSet
103 584 m 256
 103 1061.64 326.796 1184 807 1184 c 256
 1285.7 1184 1511 1063.12 1511 584 c 256
 1511 105.898 1287.67 -22 807 -22 c 256
 327.729 -22 103 104.421 103 584 c 256
807 1024 m 256
 432.996 1024 295 963.399 295 584 c 0
 295 197.876 415.379 128 807 128 c 0
 1185.66 128 1319 200.121 1319 584 c 0
 1319 960.015 1186.48 1024 807 1024 c 256
EndSplineSet
EndChar

StartChar: p
Encoding: 112 112 87
Width: 1645
GlyphClass: 2
Flags: HW
HStem: -384 21G<137 329> -22 150<492.677 1193.23> 1024 160<499.809 1187.72> 1132 20G<137 329>
VStem: 137 192<-384 128 296.239 860.801 1045 1152> 1353 192<279.329 869.306>
LayerCount: 2
Fore
SplineSet
329 1045 m 1xdc
 406.852 1164.85 629.278 1184 841 1184 c 0xec
 1320.88 1184 1545 1053.22 1545 574 c 0
 1545 99.6533 1316.33 -22 841 -22 c 0
 627.204 -22 401.026 0.569336 329 128 c 1
 329 -384 l 1
 137 -384 l 1
 137 1152 l 1
 329 1152 l 1
 329 1045 l 1xdc
841 1024 m 0
 555.835 1024 379.459 999.326 340.5 752 c 0
 332.833 703.333 329 645 329 577 c 0
 329 285.775 395.602 148.964 670 132.5 c 0
 720 129.5 777.001 128 841.001 128 c 0
 1131.03 128 1321.76 145.951 1346.5 410.5 c 0
 1350.83 456.833 1353 511.333 1353 574 c 256
 1353 863.912 1303.21 993.93 1034.5 1017 c 0
 980.167 1021.67 915.667 1024 841 1024 c 0
EndSplineSet
EndChar

StartChar: q
Encoding: 113 113 88
Width: 1638
GlyphClass: 2
Flags: HW
HStem: -384 21G<1307 1499> -22 150<447.896 1138.11> 1024 160<435.181 1152.08> 1132 20G<1307 1499>
VStem: 91 192<287.176 880.304> 1307 192<-384 128 294.965 864.453 1035 1152>
LayerCount: 2
Fore
SplineSet
1307 128 m 1xdc
 1230.31 2.01758 1011.53 -22 795 -22 c 0
 315.729 -22 91 104.421 91 584 c 256
 91 1061.64 314.796 1184 795 1184 c 0xec
 1012.49 1184 1227.84 1159.52 1307 1035 c 1
 1307 1152 l 1
 1499 1152 l 1
 1499 -384 l 1
 1307 -384 l 1
 1307 128 l 1xdc
795 1024 m 0
 506.555 1024 313.983 1013.67 289.5 750 c 0
 285.167 703.333 283 648 283 584 c 256
 283 291.339 330.298 158.294 601.5 135 c 0
 655.833 130.333 720.333 128 795 128 c 0
 1084.7 128 1256.81 153.687 1295.5 406 c 0
 1303.17 456 1307 516.334 1307 587 c 0
 1307 877.355 1243.28 1007.56 966 1020.5 c 0
 916 1022.83 859 1024 795 1024 c 0
EndSplineSet
EndChar

StartChar: r
Encoding: 114 114 89
Width: 1377
GlyphClass: 2
Flags: HW
HStem: 0 21G<137 329> 1024 160<510.174 1045.56> 1132 20G<137 329>
VStem: 137 192<0 895.355 969 1152> 1129 160<777 944.63>
LayerCount: 2
Fore
SplineSet
329 969 m 1xb8
 381.036 1130.31 582.388 1184 809 1184 c 0
 1134.91 1184 1289 1097.64 1289 777 c 1
 1129 777 l 1
 1129 1018.07 993.153 1024 745 1024 c 0xd8
 488.099 1024 329 961.746 329 713 c 2
 329 0 l 1
 137 0 l 1
 137 1152 l 1
 329 1152 l 1
 329 969 l 1xb8
EndSplineSet
EndChar

StartChar: s
Encoding: 115 115 90
AltUni2: 00017f.ffffffff.0
Width: 1550
GlyphClass: 2
Flags: W
HStem: -12 140<380.778 1173.9> 525 160<351.336 1195.74> 1024 160<368.02 1190.53>
VStem: 114 192<204.204 320 733.624 965.87> 1266 192<211.295 462.211 848 953.212>
LayerCount: 2
Back
SplineSet
306 860 m 4
 306 1007.11 467.555 1026.47 638.324 1026.47 c 4
 699.357 1026.47 761.567 1024 818 1024 c 4
 849.206 1024 881.26 1024.4 913.186 1024.4 c 4
 1091.6 1024.4 1266 1011.96 1266 848 c 5
 1458 848 l 5
 1458 1164.17 1149.97 1184 818 1184 c 4
 485.036 1184 114 1176.35 114 860 c 4
 114 542.796 358.081 524.7 664.772 524.7 c 4
 704.272 524.7 744.811 525 786 525 c 4
 846.673 525 910.731 528.416 971.599 528.416 c 4
 1129.55 528.416 1266 505.41 1266 340 c 4
 1266 143.318 1074.57 127.407 871.564 127.407 c 4
 832.377 127.407 792.758 128 754 128 c 4
 724.469 128 694.742 127.703 665.413 127.703 c 4
 477.576 127.703 306 139.867 306 320 c 5
 114 320 l 5
 114 5.63281 426.585 -12 754 -12 c 4
 1113.2 -12 1458 -11.4014 1458 344 c 260
 1458 681.243 1149.93 685.002 809.339 685.002 c 6
 786 685 l 6
 569.208 685 306 618.918 306 860 c 4
EndSplineSet
Fore
SplineSet
306 860 m 0
 306 1024 465 1024 818 1024 c 0
 1087 1024 1266 1018 1266 848 c 1
 1458 848 l 1
 1458 1164.17 1149.97 1184 818 1184 c 0
 485.036 1184 114 1176.35 114 860 c 0
 114 522 339 525 786 525 c 0
 1147 525 1266 520 1266 340 c 0
 1266 132 1085 128 754 128 c 0
 473 128 306 131 306 320 c 1
 114 320 l 1
 114 5.63281 426.585 -12 754 -12 c 0
 1113.2 -12 1458 -11.4014 1458 344 c 256
 1458 689.17 1175 685 786 685 c 0
 381 685 306 684 306 860 c 0
EndSplineSet
EndChar

StartChar: t
Encoding: 116 116 91
Width: 1331
GlyphClass: 2
Flags: W
HStem: 0 160<533.782 982.271> 994 158<45 282 474 1197>
VStem: 282 192<224.254 994 1152 1467> 1069 160<253.16 512>
LayerCount: 2
Fore
SplineSet
749 0 m 0
 423.485 0 282 91.1191 282 416 c 2
 282 994 l 1
 45 994 l 1
 45 1152 l 1
 282 1152 l 1
 282 1467 l 1
 474 1467 l 1
 474 1152 l 1
 1197 1152 l 1
 1197 994 l 1
 474 994 l 1
 474 416 l 2
 474 194.793 528.958 160 748 160 c 0
 949.146 160 1040.52 182.951 1062 365.5 c 0
 1066.67 405.167 1069 454 1069 512 c 1
 1229 512 l 1
 1229 144.65 1115.23 0 749 0 c 0
EndSplineSet
EndChar

StartChar: u
Encoding: 117 117 92
Width: 1596
GlyphClass: 2
Flags: HW
HStem: -22 150<465.864 1045.11> 0 21G<1267 1459> 1132 20G<114.969 307 1267 1459>
VStem: 114 193<279.229 1152> 1267 192<0 192 274.893 1152>
LayerCount: 2
Fore
SplineSet
1267 192 m 1x78
 1191.18 24.1152 950.167 -22 691 -22 c 0
 275.776 -22 114 94.3379 114 512 c 2
 115 1152 l 1
 307 1152 l 1
 307 512 l 2
 307 195.16 432.874 128 755 128 c 0xb8
 1040.5 128 1267 174.9 1267 448 c 2
 1267 1152 l 1
 1459 1152 l 1
 1459 0 l 1
 1267 0 l 1
 1267 192 l 1x78
EndSplineSet
EndChar

StartChar: v
Encoding: 118 118 93
Width: 1656
GlyphClass: 2
Flags: HW
HStem: 0 128<700 956>
DStem2: 316 1152 92 1152 0.466759 -0.884385<0 1144.59> 828 128 956 0 0.466759 0.884385<0 1144.59>
LayerCount: 2
Fore
SplineSet
700 0 m 1
 956 0 l 1
 1564 1152 l 1
 1340 1152 l 1
 828 128 l 1
 316 1152 l 1
 92 1152 l 1
 700 0 l 1
EndSplineSet
EndChar

StartChar: w
Encoding: 119 119 94
Width: 2306
GlyphClass: 2
Flags: HW
HStem: 944 208<953 1353>
DStem2: 673 144 801 0 0.355995 0.934488<0 918.468> 1249 1152 1153 944 0.352751 -0.935717<160.765 1077.25>
LayerCount: 2
Fore
SplineSet
2209 1152 m 1
 1985 1152 l 1
 1629 144 l 1
 1249 1152 l 1
 1057 1152 l 1
 673 144 l 1
 321 1152 l 1
 97 1152 l 1
 545 0 l 1
 801 0 l 1
 1153 944 l 1
 1505 0 l 1
 1761 0 l 1
 2209 1152 l 1
EndSplineSet
EndChar

StartChar: x
Encoding: 120 120 95
Width: 1622
GlyphClass: 2
Flags: HW
VStem: 94 256<0 256> 122 256<896 1152> 1246 256<896 1152> 1274 256<0 256>
DStem2: 94 0 350 0 0.707107 0.707107<181.019 831.558 1013.28 1629.17> 378 1152 122 1152 0.707107 -0.707107<0 616.597 796.909 1448.15>
LayerCount: 2
Fore
SplineSet
1274 0 m 1x90
 1530 0 l 1x90
 940 587 l 1
 1502 1152 l 1
 1246 1152 l 1
 817 707 l 1
 378 1152 l 1
 122 1152 l 1x60
 684 586 l 1
 94 0 l 1
 350 0 l 1
 812 482 l 1
 1274 0 l 1x90
EndSplineSet
EndChar

StartChar: y
Encoding: 121 121 96
Width: 1508
GlyphClass: 2
Flags: HW
HStem: -384 160<252 546.873>
DStem2: 252 1152 28 1152 0.466759 -0.884385<0 1144.59> 700 0 812.5 -154.5 0.447214 0.894427<-211.651 0 143.108 1194.76>
LayerCount: 2
Fore
SplineSet
636 0 m 1
 700 0 l 1
 635.748 -128.503 593.513 -196.101 414 -216.5 c 0
 370 -221.5 316 -224 252 -224 c 1
 252 -384 l 1
 535.234 -384 713.263 -333.972 812.5 -154.5 c 0
 828.167 -126.167 844 -96 860 -64 c 0
 1062.67 341.333 1265.33 746.667 1468 1152 c 1
 1244 1152 l 1
 764 128 l 1
 252 1152 l 1
 28 1152 l 1
 636 0 l 1
EndSplineSet
EndChar

StartChar: z
Encoding: 122 122 97
Width: 1390
GlyphClass: 2
Flags: HW
DStem2: 79 160 333 143 0.753724 0.657191<180.274 1294.9>
LayerCount: 2
Fore
SplineSet
143 1152 m 1
 143 1011 l 1
 1055 1011 l 1
 79 160 l 1
 79 0 l 1
 1295 0 l 1
 1295 143 l 1
 333 143 l 1
 1295 992 l 1
 1295 1152 l 1
 143 1152 l 1
EndSplineSet
EndChar

StartChar: braceleft
Encoding: 123 123 98
Width: 801
GlyphClass: 2
Flags: HW
HStem: -64 160<556.346 753> 688 160<49 214.398> 1440 160<556.001 753>
VStem: 49 256<560 976> 241 192<220.891 661.797 874.193 1313.5>
CounterMasks: 1 e0
LayerCount: 2
Fore
SplineSet
49 688 m 1xf0
 187.93 688 241 671.364 241 536 c 0
 241 138.928 350.66 -64 753 -64 c 1
 753 96 l 1
 461.161 96 433 241.951 433 536 c 0xe8
 433 664.41 394.343 723.329 305 768 c 1xf0
 394.353 812.676 433 871.564 433 1000 c 0
 433 1287.48 459.101 1440 753 1440 c 1
 753 1600 l 1
 349.731 1600 241 1400.5 241 1000 c 0xe8
 241 866.314 186.662 848 49 848 c 1
 49 688 l 1xf0
EndSplineSet
EndChar

StartChar: bar
Encoding: 124 124 99
Width: 489
GlyphClass: 2
Flags: HW
VStem: 149 192
LayerCount: 2
Fore
SplineSet
149 -128 m 1
 341 -128 l 1
 341 1600 l 1
 149 1600 l 1
 149 -128 l 1
EndSplineSet
EndChar

StartChar: braceright
Encoding: 125 125 100
Width: 808
GlyphClass: 2
Flags: HW
HStem: -64 160<60 256.999> 688 160<598.602 764> 1440 160<60 256.548>
VStem: 380 192<222.486 661.807 874.203 1314.91> 508 256<560 976>
CounterMasks: 1 e0
LayerCount: 2
Fore
SplineSet
60 -64 m 1xf0
 463.269 -64 572 135.496 572 536 c 0xf0
 572 671.35 625.067 688 764 688 c 1
 764 848 l 1xe8
 626.34 848 572 866.299 572 1000 c 0
 572 1396.62 462.056 1600 60 1600 c 1
 60 1440 l 1
 351.577 1440 380 1293.92 380 1000 c 0xf0
 380 871.59 418.657 812.671 508 768 c 1xe8
 418.647 723.324 380 664.436 380 536 c 0
 380 248.477 353.348 96 60 96 c 1
 60 -64 l 1xf0
EndSplineSet
EndChar

StartChar: asciitilde
Encoding: 126 126 101
Width: 1109
GlyphClass: 2
Flags: HW
HStem: 832 160<573.149 805.927> 928 160<307.554 540.851>
VStem: 109 192<832 920.928> 813 192<994.314 1088>
LayerCount: 2
Fore
SplineSet
301 832 m 1xb0
 301 890.719 308.233 928 365 928 c 0x70
 510.575 928 584.081 832 749 832 c 0xb0
 899.56 832 1005 932.473 1005 1088 c 1
 813 1088 l 1x70
 813 1029.96 805.377 992 749 992 c 0xb0
 603.425 992 529.92 1088 365 1088 c 0x70
 211.144 1088 109 991.013 109 832 c 1
 301 832 l 1xb0
EndSplineSet
EndChar

StartChar: cent
Encoding: 162 162 104
Width: 1559
GlyphClass: 2
Flags: HW
HStem: -32 160<445.896 1157.38> 960.021 159.979<440.655 1170.21>
VStem: 110 193<254.857 840.951> 1263 192<223.595 384 704 878.183>
LayerCount: 2
Fore
SplineSet
1455 704 m 1
 1455 1069.69 1191.64 1120 815 1120 c 0
 434.334 1120 168.307 1073.86 122 742 c 0
 114 684.667 110 618.667 110 544 c 256
 110 170.486 222.924 15.7119 563 -20.5 c 0
 635 -28.167 719 -32 815 -32 c 0
 1193.35 -32 1455 15.209 1455 384 c 1
 1263 384 l 1
 1263 129.24 1073.17 128 815 128 c 0
 530.147 128 316.463 130.115 305.5 402 c 0
 303.833 443.334 303 490.667 303 544 c 256
 303 740.839 305.956 872.511 455 923.5 c 0
 552.118 956.725 671.053 960 815 960 c 0
 827.079 960 839.251 960.021 851.463 960.021 c 0
 1046.06 960.021 1251.08 954.814 1261 778.5 c 0
 1262.33 755.5 1263 730.667 1263 704 c 1
 1455 704 l 1
EndSplineSet
EndChar

StartChar: sterling
Encoding: 163 163 105
Width: 1573
GlyphClass: 2
Flags: HW
HStem: 0 160<433 1457> 640 160<49 241 433 1265> 1173 21G<1329 1521> 1409 160<573.59 1243.37>
VStem: 241 192<160 640 800 1272.78> 1329 192<1173 1324.61>
LayerCount: 2
Fore
SplineSet
49 800 m 1
 241 800 l 1
 241 958 l 2
 241 1345.24 342.515 1518.06 693 1557 c 0
 765 1565 849 1569 945 1569 c 0
 1293.51 1569 1521 1513.88 1521 1173 c 1
 1329 1173 l 1
 1329 1400.13 1175.38 1409 945 1409 c 0
 646.943 1409 446.085 1399.3 435.5 1113.5 c 0
 433.833 1068.5 433 1016.67 433 958 c 2
 433 800 l 1
 1265 800 l 1
 1265 640 l 1
 433 640 l 1
 433 160 l 1
 1457 160 l 1
 1457 0 l 1
 241 0 l 1
 241 640 l 1
 49 640 l 1
 49 800 l 1
EndSplineSet
EndChar

StartChar: currency
Encoding: 164 164 106
Width: 1254
GlyphClass: 2
Flags: HW
HStem: 96 160<464.9 794.415> 768 160<465.143 794.569>
VStem: 182 192<345.957 678.013> 886 192<346.163 677.934>
DStem2: 186 977 102 880 0.759312 -0.650727<0 197.581 1081.2 1279.44> 102 144 186 47 0.759312 0.650727<0.661663 198.215 1082.27 1280.11>
LayerCount: 2
Fore
SplineSet
924 848 m 1
 849.906 899.489 751.566 928 630 928 c 0
 507.552 928 410.474 899.753 336 848 c 1
 186 977 l 1
 102 880 l 1
 246 756 l 1
 205.468 693.24 182 614.1 182 512 c 0
 182 408.95 205.191 331.188 246 268 c 1
 102 144 l 1
 186 47 l 1
 336 176 l 1
 409.243 122.962 507.475 96 630 96 c 0
 751.033 96 849.941 123.353 923 175 c 1
 1074 47 l 1
 1158 144 l 1
 1013 268 l 1
 1053.8 331.171 1078 408.964 1078 512 c 0
 1078 614.601 1054.64 693.54 1013 756 c 1
 1158 880 l 1
 1074 977 l 1
 924 848 l 1
886 512 m 256
 886 341.986 797.383 256 630.001 256 c 0
 461.731 256 374 341.018 374 512 c 256
 374 682.987 461.722 768 630 768 c 256
 797.376 768 886 682.008 886 512 c 256
EndSplineSet
EndChar

StartChar: yen
Encoding: 165 165 107
Width: 1957
GlyphClass: 2
Flags: HW
HStem: 0 768<505 1465> 256 160<377 889 1081 1593> 640 160<377 734 1235 1593> 1516 20G<25 299.333 1670.67 1945>
VStem: 25 256<1280 1536> 889 192<0 256 416 640> 1689 256<1280 1536>
CounterMasks: 1 0e
LayerCount: 2
Fore
SplineSet
377 416 m 1x5e
 889 416 l 1
 889 640 l 1
 377 640 l 1
 377 800 l 1
 734 800 l 1x7e
 25 1536 l 1
 281 1536 l 1
 985 768 l 1x9e
 1689 1536 l 1
 1945 1536 l 1
 1235 800 l 1
 1593 800 l 1
 1593 640 l 1
 1081 640 l 1
 1081 416 l 1
 1593 416 l 1
 1593 256 l 1
 1081 256 l 1x7e
 1081 0 l 1
 889 0 l 1x9e
 889 256 l 1
 377 256 l 1
 377 416 l 1x5e
EndSplineSet
EndChar

StartChar: brokenbar
Encoding: 166 166 108
Width: 485
GlyphClass: 2
Flags: HW
VStem: 148 192
LayerCount: 2
Fore
SplineSet
148 896 m 1
 340 896 l 1
 340 1600 l 1
 148 1600 l 1
 148 896 l 1
148 -128 m 1
 340 -128 l 1
 340 576 l 1
 148 576 l 1
 148 -128 l 1
EndSplineSet
EndChar

StartChar: section
Encoding: 167 167 109
Width: 1455
GlyphClass: 2
Flags: HW
HStem: -32 158.911<371.186 1069.12> 479.856 158.18<321.923 600.839 679 1103.71> 800 160<351.155 1134.12> 1313.08 158.921<385.883 1083.81>
VStem: 103 193<194.534 320 669.641 825.575 1011.33 1235.8> 1159 192<204.205 428.241 619.901 768.221 1120 1245.47>
LayerCount: 2
Fore
SplineSet
103 699 m 0
 103 490.652 369.991 479.855 600.84 479.855 c 0
 627.532 479.855 653.742 480 679 480 c 0
 741.736 480 812.944 484.862 880.945 484.862 c 0
 1027.41 484.862 1159 462.303 1159 320 c 0
 1159 144.431 975.033 126.911 786.293 126.911 c 0
 739.233 126.911 691.876 128 647 128 c 0
 450.803 128 299 128.23 299 320 c 1
 107 320 l 1
 107 13.2373 332.955 -32 647 -32 c 0
 1006.2 -32 1351 -31.4014 1351 324 c 0
 1351 434.697 1327.36 504.16 1261 551 c 1
 1303.5 610.297 1349 675.506 1349 757 c 0
 1349 956.695 996.477 960 775 960 c 0
 712.301 960 641.21 955.139 573.352 955.139 c 0
 427.178 955.139 296 977.697 296 1120 c 0
 296 1295.6 480.235 1313.08 669.096 1313.08 c 0
 716.03 1313.08 763.251 1312 808 1312 c 0
 1004.2 1312 1156 1311.77 1156 1120 c 1
 1348 1120 l 1
 1348 1426.76 1122.04 1472 808 1472 c 0
 448.798 1472 104 1471.4 104 1116 c 0
 104 1003.94 128.609 935.166 195 887 c 1
 152.577 835.698 103 775.159 103 699 c 0
1128 607 m 1
 999.625 637.01 852.645 640 679 640 c 0
 639.262 640 590.599 638.036 541.462 638.036 c 0
 420.176 638.036 296 650.001 296 733 c 0
 296 767.835 314.851 800.615 327 832 c 1
 454.575 802.692 601.994 800 776 800 c 0
 808.237 800 848.483 801.158 890.702 801.158 c 0
 1017.02 801.158 1161 790.789 1161 708 c 0
 1161 669.498 1144.16 639.362 1128 607 c 1
EndSplineSet
EndChar

StartChar: dieresis
Encoding: 168 168 110
Width: 1173
GlyphClass: 2
Flags: HW
HStem: 1344 192
LayerCount: 2
Fore
SplineSet
305 1536 m 1
 113 1536 l 1
 113 1344 l 1
 305 1344 l 1
 305 1536 l 1
1073 1536 m 1
 881 1536 l 1
 881 1344 l 1
 1073 1344 l 1
 1073 1536 l 1
EndSplineSet
EndChar

StartChar: copyright
Encoding: 169 169 111
Width: 1850
GlyphClass: 2
Flags: HW
HStem: 64 160<538.918 1320.27> 410 134<658.237 1202.86> 1241 134<660.917 1202.5> 1504 160<527.735 1309.08>
VStem: 92 192<474.283 1247.34> 412 162<628.942 1154.99> 1276 160<614.491 759 1027 1170.27> 1564 192<480.658 1253.72>
LayerCount: 2
Fore
SplineSet
924 1664 m 256
 439.776 1664 152.768 1544.48 104.5 1112 c 0
 96.167 1037.33 92 954.667 92 864 c 0
 92 394.932 212.733 152.524 618 85.5 c 0
 704.667 71.167 806.667 64 924 64 c 256
 1408.22 64 1695.23 183.521 1743.5 616 c 0
 1751.83 690.667 1756 773.334 1756 864 c 256
 1756 1333.07 1635.27 1575.47 1230 1642.5 c 0
 1143.33 1656.83 1041.33 1664 924 1664 c 256
924 224 m 256
 538.928 224 336.247 269.365 296 616.5 c 0
 288 685.5 284 768 284 864 c 256
 284 1254.15 337.287 1468.53 699 1496.5 c 0
 763.667 1501.5 838.667 1504 924 1504 c 256
 1309.07 1504 1511.75 1458.63 1552 1111.5 c 0
 1560 1042.5 1564 960 1564 864 c 256
 1564 473.852 1510.71 259.468 1149 231.5 c 0
 1084.33 226.5 1009.33 224 924 224 c 256
1436 1027 m 1
 1436 1326.34 1230.14 1375 923 1375 c 0
 656.543 1375 480.804 1337.06 433 1126.5 c 0
 419 1064.83 412 986.999 412 893 c 256
 412 632.993 457.309 479.805 666.5 432.5 c 0
 732.833 417.5 818.333 410 923 410 c 0
 1232.09 410 1436 456.575 1436 759 c 1
 1276 759 l 1
 1276 552.256 1132.74 544 923 544 c 0
 706.79 544 581.527 565.056 575.5 774 c 0
 574.5 808.667 574 848.334 574 893 c 256
 574 1101.58 583.687 1211.32 776.5 1234 c 0
 816.167 1238.67 865 1241 923 1241 c 0
 1133.18 1241 1276 1238.1 1276 1027 c 1
 1436 1027 l 1
EndSplineSet
EndChar

StartChar: guillemotleft
Encoding: 171 171 113
Width: 1262
GlyphClass: 2
Flags: HW
VStem: 89 128<512 704> 537 128<512 704>
DStem2: 89 704 217 608 0.816968 0.576683<49.2103 665.877> 217 608 89 512 0.816968 -0.576683<0 616.667> 537 704 665 608 0.816968 0.576683<49.2103 665.877> 665 608 537 512 0.816968 -0.576683<0 616.667>
LayerCount: 2
Fore
SplineSet
729 256 m 1
 633 128 l 1
 89 512 l 1
 89 704 l 1
 633 1088 l 1
 729 960 l 1
 217 608 l 1
 729 256 l 1
1177 256 m 1
 1081 128 l 1
 537 512 l 1
 537 704 l 1
 1081 1088 l 1
 1177 960 l 1
 665 608 l 1
 1177 256 l 1
EndSplineSet
EndChar

StartChar: logicalnot
Encoding: 172 172 114
Width: 1189
GlyphClass: 2
Flags: HW
HStem: 928 160<101 869>
VStem: 869 192<640 928>
LayerCount: 2
Fore
SplineSet
1061 640 m 1
 869 640 l 1
 869 928 l 1
 101 928 l 1
 101 1088 l 1
 1061 1088 l 1
 1061 640 l 1
EndSplineSet
EndChar

StartChar: registered
Encoding: 174 174 115
Width: 1850
GlyphClass: 2
Flags: HW
HStem: 64 160<538.918 1320.27> 800.349 127.457<879.7 1122> 1248 128<824 1142.81> 1504 160<527.735 1309.08>
VStem: 92 192<474.283 1247.34> 1208 160<536 717.727 980.316 1189.96> 1564 192<480.658 1253.72>
LayerCount: 2
Fore
SplineSet
879.7 800.349 m 0
 1102.81 800.349 1208 770.338 1208 536 c 2
 1208 384 l 1
 1369 384 l 1
 1369 536 l 2
 1369 744.115 1311.39 836.575 1124 860 c 1
 1272.99 869.312 1368 937.529 1368 1088 c 1
 1364.03 1357.36 1111.63 1376 824 1376 c 2
 537 1376 l 1
 537 384 l 1
 697 384 l 1
 697 800 l 1
 792 800 l 2
 821.571 800 850.983 800.349 879.7 800.349 c 0
1208 1088 m 0
 1208 937.26 1054.91 927.806 893.524 927.806 c 0
 870.378 927.806 847.061 928 824 928 c 2
 697 928 l 1
 697 1248 l 1
 824 1248 l 2
 843.326 1248 862.871 1248.11 882.369 1248.11 c 0
 1046.81 1248.11 1208 1240.05 1208 1088 c 0
924 1664 m 256
 439.776 1664 152.768 1544.48 104.5 1112 c 0
 96.167 1037.33 92 954.667 92 864 c 0
 92 394.932 212.733 152.524 618 85.5 c 0
 704.667 71.167 806.667 64 924 64 c 256
 1408.22 64 1695.23 183.521 1743.5 616 c 0
 1751.83 690.667 1756 773.334 1756 864 c 256
 1756 1333.07 1635.27 1575.47 1230 1642.5 c 0
 1143.33 1656.83 1041.33 1664 924 1664 c 256
924 224 m 256
 538.928 224 336.247 269.365 296 616.5 c 0
 288 685.5 284 768 284 864 c 256
 284 1254.15 337.287 1468.53 699 1496.5 c 0
 763.667 1501.5 838.667 1504 924 1504 c 256
 1309.07 1504 1511.75 1458.63 1552 1111.5 c 0
 1560 1042.5 1564 960 1564 864 c 256
 1564 473.852 1510.71 259.468 1149 231.5 c 0
 1084.33 226.5 1009.33 224 924 224 c 256
EndSplineSet
EndChar

StartChar: macron
Encoding: 175 175 116
Width: 981
GlyphClass: 2
Flags: HW
HStem: 1344 160
LayerCount: 2
Fore
SplineSet
113 1344 m 1
 881 1344 l 1
 881 1504 l 1
 113 1504 l 1
 113 1344 l 1
EndSplineSet
EndChar

StartChar: degree
Encoding: 176 176 117
Width: 1093
GlyphClass: 2
Flags: HW
HStem: 96 160<384.111 713.698> 768 160<384.11 713.697>
VStem: 101 192<348.147 675.852> 805 192<348.357 675.644>
LayerCount: 2
Fore
SplineSet
997 512 m 256
 997 788.651 823.936 928 549 928 c 256
 274.065 928 101 788.643 101 512 c 256
 101 235.349 274.063 96 549 96 c 256
 823.935 96 997 235.357 997 512 c 256
805 512 m 256
 805 341.986 716.383 256 549.001 256 c 0
 380.731 256 293 341.018 293 512 c 256
 293 682.987 380.722 768 549 768 c 256
 716.376 768 805 682.008 805 512 c 256
EndSplineSet
EndChar

StartChar: plusminus
Encoding: 177 177 118
Width: 1217
GlyphClass: 2
Flags: HW
HStem: 800 160<67 515 707 1155>
VStem: 515 192<320 800 960 1408>
LayerCount: 2
Fore
SplineSet
67 960 m 1
 515 960 l 1
 515 1408 l 1
 707 1408 l 1
 707 960 l 1
 1155 960 l 1
 1155 800 l 1
 707 800 l 1
 707 320 l 1
 515 320 l 1
 515 800 l 1
 67 800 l 1
 67 960 l 1
EndSplineSet
EndChar

StartChar: twosuperior
Encoding: 178 178 119
Width: 1298
GlyphClass: 2
Flags: HW
HStem: 1408 160.001<351.619 642.188 658 960.041>
VStem: 113 192<608 744.635 1248 1364.07> 1009 192<1097.95 1361.17>
DStem2: 433 962 625 833 0.982583 0.185825<-133.478 560.784>
LayerCount: 2
Fore
SplineSet
658 1408 m 0
 691.745 1408 724.585 1408.64 755.775 1408.64 c 0
 900.032 1408.64 1009 1395.03 1009 1242 c 256
 1009 1091.86 943.917 1059.44 819 1035 c 2
 433 962 l 2
 243.146 925.755 113 886.763 113 672 c 2
 113 448 l 1
 1171 448 l 1
 1171 608 l 1
 305 608 l 1
 305 811.054 452.219 798.464 625 833 c 2
 883 884 l 2
 1087.97 923.671 1201 1001.93 1201 1243 c 0
 1201 1563.62 979.066 1568 658 1568 c 2
 642.188 1568 l 2
 337.852 1568 113 1565.31 113 1248 c 1
 305 1248 l 1
 305 1392.37 397.434 1409.75 526.228 1409.75 c 0
 567.089 1409.75 611.609 1408 658 1408 c 0
EndSplineSet
EndChar

StartChar: threesuperior
Encoding: 179 179 120
Width: 1422
GlyphClass: 2
Flags: HW
HStem: 413.986 151.42<313.836 531.709 776.728 1058.17> 896 160<926 1081.63> 1376 160<320.138 548.5 819.04 1082.24>
VStem: 95 192<596.844 703 1218 1335.56> 1117 193<618.611 862.274 1091.36 1340.71>
LayerCount: 2
Fore
SplineSet
495.661 565.406 m 0
 356.1 565.406 287 582.553 287 703 c 1
 95 703 l 1
 95 441.718 288.758 413.986 531.709 413.986 c 0
 597.177 413.986 666.217 416 736 416 c 0
 749.718 416 763.298 415.987 776.729 415.987 c 0
 1082.33 415.987 1310 422.522 1310 733 c 0
 1310 886.481 1258.23 932.192 1150 976 c 1
 1259.67 1009.94 1310 1073.88 1310 1218 c 0
 1310 1523.17 1109.6 1536.11 819.04 1536.11 c 0
 792.105 1536.11 764.396 1536 736 1536 c 0
 664.186 1536 593.694 1538.31 527.262 1538.31 c 0
 283.901 1538.31 95 1507.29 95 1218 c 1
 287 1218 l 1
 287 1381.64 383.786 1372.85 548.5 1375 c 0
 599.5 1375.67 662 1376 736 1376 c 0
 802.846 1376 868.399 1382.45 925.771 1382.45 c 0
 1036.67 1382.45 1117 1358.35 1117 1217 c 0
 1117 1088.71 1053.98 1056 926 1056 c 2
 735 1056 l 1
 735 896 l 1
 926 896 l 2
 1057 896 1117 867.854 1117 734 c 0
 1117 592.054 1015.12 573.821 882.144 573.821 c 0
 836.171 573.821 786.481 576 736 576 c 0
 675.157 576 581.539 565.406 495.661 565.406 c 0
EndSplineSet
EndChar

StartChar: acute
Encoding: 180 180 121
Width: 838
GlyphClass: 2
Flags: HW
LayerCount: 2
Fore
SplineSet
800 1664 m 1
 672 1856 l 1
 96 1376 l 1
 160 1280 l 1
 800 1664 l 1
EndSplineSet
EndChar

StartChar: mu
Encoding: 181 181 122
Width: 1636
GlyphClass: 2
Flags: HW
HStem: -384 21G<148 340> -32 160<494.203 1062.4> 0 21G<1300 1492>
VStem: 148 192<-384 33 274.309 1088> 1300 192<0 191 274.893 1088>
LayerCount: 2
Fore
SplineSet
724 -32 m 0xd8
 565.46 -32 439.82 -16.1416 340 33 c 1
 340 -384 l 1
 148 -384 l 1
 148 -226 148 -226 148 -103.5 c 0
 148 38.3896 147 164.687 147 293.5 c 2
 147 580 l 2
 147 681.154 148 778.921 148 886.5 c 0
 148 975 148 975 148 1088 c 1
 340 1088 l 1
 340 512 l 2
 340 195.16 465.874 128 788 128 c 0xd8
 1073.5 128 1300 174.9 1300 448 c 2
 1300 1088 l 1
 1492 1088 l 1
 1492 0 l 1
 1300 0 l 1xb8
 1300 191 l 1
 1211.31 23.4336 990.216 -32 724 -32 c 0xd8
EndSplineSet
EndChar

StartChar: paragraph
Encoding: 182 182 123
Width: 1839
GlyphClass: 2
Flags: HW
VStem: 76 960<844.051 1344.37>
LayerCount: 2
Fore
SplineSet
1036 1376 m 1
 1420 1376 l 1
 1420 0 l 1
 1612 0 l 1
 1612 1376 l 1
 1804 1376 l 1
 1804 1536 l 1
 781 1536 l 2
 441.247 1536 119.373 1521.55 83.5 1225 c 0
 78.5 1183.67 76 1138 76 1088 c 0
 76 658.051 345.721 608 781 608 c 2
 844 608 l 1
 844 0 l 1
 1036 0 l 1
 1036 1376 l 1
EndSplineSet
EndChar

StartChar: periodcentered
Encoding: 183 183 124
Width: 414
GlyphClass: 2
Flags: HW
HStem: 704 192
VStem: 114 192
LayerCount: 2
Fore
SplineSet
306 896 m 1
 114 896 l 1
 114 704 l 1
 306 704 l 1
 306 896 l 1
EndSplineSet
EndChar

StartChar: cedilla
Encoding: 184 184 125
Width: 561
GlyphClass: 2
Flags: HW
HStem: -544 159.899<109 283.845> -223.835 95.8352<237 297.258>
VStem: 109 128<-128 64> 301 192<-368.65 -237.143>
LayerCount: 2
Fore
SplineSet
237 -128 m 1
 367.237 -128 493 -158.237 493 -288 c 0
 493 -502.104 321.142 -544 109 -544 c 1
 109 -384 l 1
 121.425 -384 133.629 -384.101 145.486 -384.101 c 0
 232.6 -384.101 301 -378.669 301 -288 c 0
 301 -228.528 223.763 -223.835 149.744 -223.835 c 0
 135.873 -223.835 122.115 -224 109 -224 c 1
 109 64 l 1
 237 64 l 1
 237 -128 l 1
EndSplineSet
EndChar

StartChar: onesuperior
Encoding: 185 185 126
Width: 880
GlyphClass: 2
Flags: HW
DStem2: 35 1120 131 992 0.732794 0.680451<0 549.386>
LayerCount: 2
Fore
SplineSet
35 1120 m 1
 131 992 l 1
 547 1376 l 1
 547 448 l 1
 739 448 l 1
 739 1536 l 1
 483 1536 l 1
 35 1120 l 1
EndSplineSet
EndChar

StartChar: ordmasculine
Encoding: 186 186 127
Width: 1599
GlyphClass: 2
Flags: HW
HStem: 385 160<439.997 1158.08> 1377 160<437.92 1156.65>
VStem: 94 192<690.727 1230.36> 1310 192<691.645 1230.52>
LayerCount: 2
Fore
SplineSet
798 385 m 256
 330.984 385 94 495.885 94 961 c 256
 94 1426.1 330.979 1537 798 1537 c 256
 1265.02 1537 1502 1426.12 1502 961 c 256
 1502 495.902 1265.02 385 798 385 c 256
286 961 m 0
 286 682.005 343.668 572.282 604.5 551.5 c 0
 658.833 547.167 723.333 545 798 545 c 0
 1044.79 545 1226.37 550.021 1284 734 c 0
 1301.33 789.333 1310 865 1310 961 c 256
 1310 1210.37 1257.83 1341.55 1040 1366 c 0
 974.667 1373.33 894 1377 798 1377 c 256
 551.21 1377 369.632 1371.98 312 1188 c 0
 294.667 1132.67 286 1057 286 961 c 0
EndSplineSet
EndChar

StartChar: guillemotright
Encoding: 187 187 128
Width: 1264
GlyphClass: 2
Flags: HW
VStem: 606 128<512 704> 1054 128<512 704>
DStem2: 190 1088 94 960 0.816968 -0.576683<0 616.667> 94 256 190 128 0.816968 0.576683<4.61346 621.28> 638 1088 542 960 0.816968 -0.576683<0 616.667> 542 256 638 128 0.816968 0.576683<4.61346 621.28>
LayerCount: 2
Fore
SplineSet
606 608 m 1
 94 960 l 1
 190 1088 l 1
 734 704 l 1
 734 512 l 1
 190 128 l 1
 94 256 l 1
 606 608 l 1
1054 608 m 1
 542 960 l 1
 638 1088 l 1
 1182 704 l 1
 1182 512 l 1
 638 128 l 1
 542 256 l 1
 1054 608 l 1
EndSplineSet
EndChar

StartChar: AE
Encoding: 198 198 139
Width: 3063
GlyphClass: 2
Flags: HW
HStem: 0 160<1693 2973> 352 160<733 1501> 704 160<1693 2909> 1376 160<1693 2973>
VStem: 29 256<0 256> 1501 192<160 352 512 704 864 1376>
DStem2: 29 0 285 0 0.675725 0.737154<172.986 652.75 853.133 1774.01>
LayerCount: 2
Fore
SplineSet
1501 0 m 1
 1501 352 l 1
 611 352 l 1
 285 0 l 1
 29 0 l 1
 1437 1536 l 1
 2973 1536 l 1
 2973 1376 l 1
 1693 1376 l 1
 1693 864 l 1
 2909 864 l 1
 2909 704 l 1
 1693 704 l 1
 1693 160 l 1
 2973 160 l 1
 2973 0 l 1
 1501 0 l 1
1501 512 m 1
 1501 1376 l 1
 733 512 l 1
 1501 512 l 1
EndSplineSet
EndChar

StartChar: Ccedilla
Encoding: 199 199 140
Width: 2071
GlyphClass: 2
Flags: HW
HStem: -544 159.899<938.002 1112.85> -223.835 95.8352<1066 1126.26> -32 160<444.978 938.002 1066 1624.01> 1408 160<443.465 1615.28>
VStem: 110.002 186.528<273.343 1255.43> 938.002 128<-128 -32> 1130 192<-368.65 -237.143> 1770 192<264.617 512 1056 1265.3>
LayerCount: 2
Fore
SplineSet
1066 -128 m 1
 1196.24 -128 1322 -158.237 1322 -288 c 0
 1322 -502.104 1150.14 -544 938.002 -544 c 1
 938.002 -384 l 1
 950.427 -384 962.631 -384.101 974.487 -384.101 c 0
 1061.6 -384.101 1130 -378.669 1130 -288 c 0
 1130 -228.528 1052.76 -223.835 978.746 -223.835 c 0
 964.875 -223.835 951.117 -224 938.002 -224 c 1
 938.002 -32 l 1
 810.002 -32 l 2
 347.174 -32 121.995 72.2344 110.002 520 c 0
 108.002 594.667 107.002 677.334 107.002 768 c 258
 107 792.617 l 2
 107 1107.46 109.598 1366.95 315.002 1481.5 c 0
 437.878 1550.03 603.756 1568 810.002 1568 c 2
 1259 1568 l 2
 1695.07 1568 1962 1492.39 1962 1056 c 1
 1770 1056 l 1
 1770 1387.53 1592.04 1408 1259 1408 c 2
 810.002 1408 l 2
 548.16 1408 359.772 1406.91 317.002 1190 c 0
 301.002 1108.86 298.315 1020.45 298.315 922.983 c 0
 298.315 873.715 299.002 822.132 299.002 768 c 256
 299.002 699.456 296.53 629.598 296.53 562.643 c 0
 296.53 380.914 314.739 220.58 450.002 166 c 0
 543.896 128.112 663.665 128 807.416 128 c 2
 810.002 128 l 1
 1259 128 l 2
 1528.68 128 1734.7 131.957 1763 372.5 c 0
 1767.67 412.167 1770 458.667 1770 512 c 1
 1962 512 l 1
 1962 60.917 1714.76 -32 1259 -32 c 2
 1066 -32 l 1
 1066 -128 l 1
EndSplineSet
EndChar

StartChar: Eth
Encoding: 208 208 149
Width: 2165
GlyphClass: 2
Flags: HW
HStem: 0 160<1346 1722.06> 1376 160<1346 1719.97>
VStem: 1859 192<303.592 584.343 768 1236.76>
LayerCount: 2
Fore
SplineSet
67 704 m 1
 195 704 l 1
 195 0 l 1
 1346 0 l 2
 1800.89 0 2033.26 92.1367 2047.5 529.5 c 0
 2049.83 601.167 2051 680.667 2051 768 c 256
 2051 1086.44 2050 1341.44 1841.5 1453 c 0
 1717.27 1519.46 1551.77 1536 1346 1536 c 2
 195 1536 l 1
 195 864 l 1
 67 864 l 1
 67 704 l 1
387 160 m 1
 387 704 l 1
 835 704 l 1
 835 864 l 1
 387 864 l 1
 387 1376 l 1
 1346 1376 l 1
 1369.62 1376 l 2
 1614.14 1376 1795.82 1372.86 1839.5 1169.5 c 0
 1856.88 1088.6 1859.46 999.194 1859.46 899.835 c 0
 1859.46 857.715 1859 813.807 1859 768 c 256
 1859 706.257 1860.89 644.038 1860.89 584.343 c 0
 1860.89 404.436 1843.73 247.45 1706 195.5 c 0
 1612.77 160.333 1493.83 160 1354.11 160 c 2
 1346 160 l 1
 387 160 l 1
EndSplineSet
EndChar

StartChar: multiply
Encoding: 215 215 156
Width: 1051
GlyphClass: 2
Flags: HW
HStem: 728 272<383 655>
VStem: 383 272<728 1000>
DStem2: 202 1317 66 1181 0.707107 -0.707107<0 448.306 640.639 1088.94> 66 547 202 411 0.707107 0.707107<0 448.306 640.639 1088.94>
LayerCount: 2
Fore
SplineSet
972 1181 m 1
 836 1317 l 1
 519 1000 l 1
 202 1317 l 1
 66 1181 l 1
 383 864 l 1
 66 547 l 1
 202 411 l 1
 519 728 l 1
 836 411 l 1
 972 547 l 1
 655 864 l 1
 972 1181 l 1
EndSplineSet
EndChar

StartChar: Oslash
Encoding: 216 216 157
Width: 2205
GlyphClass: 2
Flags: HW
HStem: -32 160<440.274 747.002 997.002 1753.81> 1408 160<443.651 1327 1574 1752.13>
VStem: 110.002 186.528<273.342 1255.43> 1899.45 191.552<274.494 1267.07>
DStem2: 682.002 -192 842.002 -256 0.373968 0.927441<0.47868 173.626 414.581 1725.12 1959.38 2139.22>
LayerCount: 2
Fore
SplineSet
810.002 1568 m 0
 1004 1568 1198 1568 1392 1568 c 1
 1482 1792 l 1
 1642 1728 l 1
 1574 1561 l 1
 1928.79 1525.52 2075.75 1392.16 2087.5 1016 c 0
 2089.83 941.333 2091 858.667 2091 768 c 258
 2091 756.176 l 2
 2091 436.634 2089.75 169.799 1883 54.5 c 0
 1760.13 -14.0273 1594.25 -32 1388 -32 c 2
 932.002 -32 l 1
 842.002 -256 l 1
 682.002 -192 l 1
 747.002 -31 l 1
 320.651 -21.5254 121.326 97.2393 110.002 520 c 0
 108.002 594.667 107.002 677.334 107.002 768 c 258
 107 792.617 l 2
 107 1107.46 109.598 1366.95 315.002 1481.5 c 0
 437.878 1550.03 603.756 1568 810.002 1568 c 0
810.002 1408 m 2
 548.795 1408 359.748 1406.79 317.002 1190 c 0
 301.002 1108.86 298.315 1020.45 298.315 922.983 c 0
 298.315 873.715 299.002 822.132 299.002 768 c 256
 299.002 699.455 296.53 629.595 296.53 562.64 c 0
 296.53 380.913 314.739 220.58 450.002 166 c 0
 543.896 128.112 663.665 128 807.416 128 c 2
 810.002 128 l 1
 811.002 128 l 1
 1327 1408 l 1
 810.002 1408 l 2
1388 128 m 2
 1649.36 128 1837.33 129.569 1880 346 c 0
 1896.94 431.883 1899.45 525.854 1899.45 630.156 c 0
 1899.45 674.206 1899 720.098 1899 768 c 256
 1899 836.359 1901.42 905.824 1901.42 972.355 c 0
 1901.42 1154.54 1883.26 1314.72 1747.5 1370 c 0
 1689.04 1393.79 1599.04 1402.52 1512 1406 c 1
 997.002 128 l 1
 1388 128 l 2
EndSplineSet
EndChar

StartChar: Thorn
Encoding: 222 222 163
Width: 1977
GlyphClass: 2
Flags: HW
HStem: 416 160<1170 1594.14> 1184 160<1301 1612.82>
VStem: 1683 192<655.707 1113.03>
LayerCount: 2
Fore
SplineSet
147 0 m 1
 339 0 l 1
 339 416 l 1
 1170 416 l 2
 1525.96 416 1853.99 421.83 1871.5 752 c 0
 1873.83 796 1875 844 1875 896 c 0
 1875 1193.56 1811.35 1297.38 1542.5 1331.5 c 0
 1476.83 1339.83 1396.33 1344 1301 1344 c 2
 339 1344 l 1
 339 1536 l 1
 147 1536 l 1
 147 0 l 1
339 1184 m 1
 1170 1184 l 2
 1236.62 1184 1307.56 1188.13 1374.72 1188.13 c 0
 1534.1 1188.13 1672.16 1164.88 1680.5 1008 c 0
 1682.17 976.666 1683 939.333 1683 896 c 0
 1683 722.284 1677.42 628.036 1530 597 c 0
 1433.75 576.736 1327.99 575.995 1200.56 575.995 c 2
 1170 576 l 1
 339 576 l 1
 339 1184 l 1
EndSplineSet
EndChar

StartChar: germandbls
Encoding: 223 223 164
Width: 2024
GlyphClass: 2
Flags: HW
HStem: 0 160<1287 1622.49> 736 160<1223 1519.38> 1376 160<452.343 804.599 1224 1517.48>
VStem: 136 192<1058 1257.12> 1608 192<982.74 1299.14> 1736 192<267.043 645.633>
LayerCount: 2
Fore
SplineSet
1376.32 737.509 m 0xf8
 1602.07 737.509 1736 707.831 1736 478 c 0
 1736 232.322 1654.92 173.655 1417 163.5 c 0
 1362.33 161.167 1297.66 160 1223 160 c 2
 520 160 l 1
 520 0 l 1
 1287 0 l 2
 1622.5 0 1887.03 34.748 1920.5 331.5 c 0
 1925.5 375.834 1928 424.667 1928 478 c 0xf4
 1928 692.928 1807.09 820.939 1608 832 c 1
 1752.77 845.404 1800 1008.45 1800 1174 c 0
 1800 1466.14 1588 1536 1288 1536 c 2
 777 1536 l 2
 441.506 1536 176.967 1501.24 143.5 1204.5 c 0
 138.5 1160.17 136 1111.33 136 1058 c 2
 136 -128 l 1
 328 -128 l 1
 328 1058 l 2
 328 1370.11 500.715 1376.01 804.599 1376.01 c 2
 841 1376 l 1
 1224 1376 l 2
 1423.68 1376 1608 1369.78 1608 1174 c 0
 1608 913.042 1487.98 896 1223 896 c 2
 520 896 l 1
 520 736 l 1
 1223 736 l 2
 1273.04 736 1325.23 737.509 1376.32 737.509 c 0xf8
EndSplineSet
EndChar

StartChar: ae
Encoding: 230 230 171
Width: 2693
GlyphClass: 2
Flags: HW
HStem: -32 160<369.065 1135.47 1590.67 2310> 496 163<335.806 1128.12> 512 128<1434 2394> 960 160<431.215 1103.56 1572 2244.69>
VStem: 90 192<200.237 438.771> 154 192<768 888.129> 1242 192<272.583 417.913 640 822.569> 2394 192<199.904 320 640 824.213>
LayerCount: 2
Fore
SplineSet
2586 320 m 1xb7
 2586 -6.58691 2284.56 -32 1946 -32 c 0
 1682.15 -32 1457.99 -1.14258 1344 145 c 1
 1240 7.56738 1010.67 -36 763.999 -36 c 0
 441.839 -36 90 -12.9375 90 293 c 0
 90 646.861 378.288 659 731 659 c 0xdb
 920.285 659 1161.74 647.674 1242 544 c 1
 1242 805.846 1193.31 941.153 947 956 c 0
 903 958.667 852.667 960 796 960 c 0
 766.69 960 737.155 960.289 707.979 960.289 c 0
 519.465 960.289 346 948.213 346 768 c 1
 154 768 l 1
 154 1094.93 457.198 1120 796 1120 c 0
 1074.62 1120 1247.9 1078.09 1344 896 c 1
 1435.77 1090.33 1658.37 1120 1946 1120 c 0
 2365.91 1120 2586 994.701 2586 576 c 1
 2570 512 l 1
 1434 512 l 1
 1434 486 l 1
 1439.48 154.739 1608.84 128 1946 128 c 0
 1975.53 128 2005.26 127.703 2034.59 127.703 c 0
 2222.42 127.703 2394 139.867 2394 320 c 1
 2586 320 l 1xb7
1242 320 m 256
 1242 486.852 1002.92 496.146 804.266 496.146 c 0
 779.358 496.146 755.086 496 732 496 c 256
 670.038 496 606.948 499.521 548.376 499.521 c 0
 400.859 499.521 282 477.185 282 320 c 256
 282 146.217 443.413 126.21 627.923 126.21 c 0
 683.116 126.21 740.376 128 796 128 c 0
 997.28 128 1242 133.115 1242 320 c 256
2394 640 m 1xb3
 2394 915.263 2223.59 960 1946 960 c 0
 1632.52 960 1434 954.299 1434 640 c 1
 2394 640 l 1xb3
EndSplineSet
EndChar

StartChar: ccedilla
Encoding: 231 231 172
Width: 1541
GlyphClass: 2
Flags: HW
HStem: -544 159.899<670 844.741> -223.836 95.8361<798 858.257> -32 160<432.589 670 798 1141.38> 960.021 159.979<424.655 1154.21>
VStem: 94 193<251.842 840.951> 862 192<-368.548 -237.142> 1247 192<223.595 384 704 878.183>
LayerCount: 2
Fore
SplineSet
862 -288 m 0
 862 -378.67 793.594 -384.101 706.482 -384.101 c 0
 694.626 -384.101 682.424 -384 670 -384 c 1
 670 -544 l 1
 881.904 -544 1054 -501.453 1054 -288 c 0
 1054 -158.234 928.234 -128 798 -128 c 1
 798 -32 l 1
 799 -32 l 2
 1177.35 -32 1439 15.209 1439 384 c 1
 1247 384 l 1
 1247 129.24 1057.17 128 799 128 c 0
 514.147 128 300.463 130.115 289.5 402 c 0
 287.833 443.334 287 490.667 287 544 c 256
 287 740.839 289.956 872.511 439 923.5 c 0
 536.118 956.725 655.053 960 799 960 c 0
 811.079 960 823.251 960.021 835.463 960.021 c 0
 1030.06 960.021 1235.08 954.814 1245 778.5 c 0
 1246.33 755.5 1247 730.667 1247 704 c 1
 1439 704 l 1
 1439 1069.69 1175.64 1120 799 1120 c 0
 418.334 1120 152.307 1073.86 106 742 c 0
 98 684.667 94 618.667 94 544 c 0
 94 114.538 253.609 -10.3555 670 -29 c 1
 670 -224 l 1
 683.1 -224 696.838 -223.836 710.688 -223.836 c 0
 784.738 -223.836 862 -228.522 862 -288 c 0
EndSplineSet
EndChar

StartChar: eth
Encoding: 240 240 181
Width: 2012
GlyphClass: 2
Flags: HW
HStem: -32 160<406.142 787 1108 1469.91> 770.477 158.591<422.276 787 1011.01 1481.48> 1408.09 159.911<493.16 1373.01>
VStem: 84 192<235.993 638.368> 149 159<1120 1262.99> 1620 192<273.019 674.989 832 1132.36>
DStem2: 1237 1146 1280 1026 0.941004 0.338397<0 316.628 501.537 768.184>
LayerCount: 2
Fore
SplineSet
1695 1311 m 1xf4
 1563.08 1507.41 1312.89 1568 980 1568 c 0
 545.164 1568 149 1551 149 1120 c 1
 308 1120 l 1xec
 308 1396.81 613.432 1408.09 903.393 1408.09 c 0
 929.125 1408.09 954.735 1408 980 1408 c 0
 1228.01 1408 1435.56 1399.4 1535 1253 c 1
 1237 1146 l 1
 1280 1026 l 1
 1587 1136 l 1
 1609 1058.67 1620 957.333 1620 832 c 1
 1479.31 918.591 1246.83 929.068 1011.01 929.068 c 0
 935.72 929.068 860.091 928 787 928 c 0
 361.955 928 84 860.377 84 448 c 256
 84 35.6455 361.982 -32 787 -32 c 2
 1108 -32 l 2
 1572.4 -32 1794.51 72.3701 1808.5 520 c 0
 1810.83 594.667 1812 677.334 1812 768 c 0
 1812 935.696 1796.83 1076.92 1752 1196 c 1
 2003 1286 l 1
 1960 1406 l 1
 1695 1311 l 1xf4
787 768 m 0
 884.008 768 979.538 770.477 1071.14 770.477 c 0
 1222.28 770.477 1362.74 763.734 1481.5 728 c 0
 1583.76 697.23 1620 641.907 1620 512 c 0
 1620 280.352 1565.59 173.09 1365 143 c 0
 1298.33 133 1212.66 128 1108 128 c 2
 787 128 l 2
 775.026 128 763.079 127.986 751.184 127.986 c 0
 521.008 127.986 309.645 132.964 282.5 335.5 c 0
 278.167 367.833 276 405.333 276 448 c 256xf4
 276 758.979 473.295 768 787 768 c 0
EndSplineSet
EndChar

StartChar: divide
Encoding: 247 247 188
Width: 1201
GlyphClass: 2
Flags: HW
LayerCount: 2
Fore
SplineSet
81 512 m 1
 1105 512 l 1
 1105 672 l 1
 81 672 l 1
 81 512 l 1
721 960 m 1
 529 960 l 1
 529 768 l 1
 721 768 l 1
 721 960 l 1
721 384 m 1
 529 384 l 1
 529 192 l 1
 721 192 l 1
 721 384 l 1
EndSplineSet
EndChar

StartChar: oslash
Encoding: 248 248 189
Width: 1602
GlyphClass: 2
Flags: HW
HStem: -32 160<719.79 1152.94> 960 160<443.065 873.984>
VStem: 94 192<270.929 813.355> 1310 192<274.645 813.846>
DStem2: 414 -160 574 -224 0.38176 0.924261<1.92889 166.387 382.624 1210.62 1427.78 1592.62>
LayerCount: 2
Fore
SplineSet
472 -5 m 0
 201.762 49.4512 94 217.8 94 544 c 256
 94 1009.1 330.979 1120 798 1120 c 0
 848.668 1120 896.335 1118.33 941 1115 c 1
 1022 1312 l 1
 1182 1248 l 1
 1118 1094 l 1
 1120 1093.33 1122 1093 1124 1093 c 0
 1394.24 1038.55 1502 870.2 1502 544 c 256
 1502 78.9023 1265.02 -32 798 -32 c 0
 747.333 -32 699.667 -30.333 655 -27 c 1
 574 -224 l 1
 414 -160 l 1
 477 -6 l 1
 475.667 -5.33301 474 -5 472 -5 c 0
286 544 m 0
 286 295.819 325.926 178.113 538 141 c 1
 876 959 l 1
 851.333 959.667 825.333 960 798 960 c 0
 551.21 960 369.632 954.979 312 771 c 0
 294.667 715.667 286 640 286 544 c 0
798 128 m 0
 1044.79 128 1226.37 133.021 1284 317 c 0
 1301.33 372.333 1310 448 1310 544 c 256
 1310 785.537 1262.07 917.386 1057 946 c 1
 719 128 l 1
 757 128 757 128 798 128 c 0
EndSplineSet
EndChar

StartChar: thorn
Encoding: 254 254 195
Width: 1658
GlyphClass: 2
Flags: HW
HStem: -32 160<502.748 1204.93> 960 160<509.093 1209.63>
VStem: 146 192<277.434 793.398> 1362 192<270.05 819.451>
LayerCount: 2
Fore
SplineSet
1554 544 m 256
 1554 1009.1 1317.02 1120 850 1120 c 0
 641.614 1120 411.027 1089.52 338 961 c 1
 338 1536 l 1
 146 1536 l 1
 146 -384 l 1
 338 -384 l 1
 338 128 l 1
 410.043 -1.67676 641.48 -32 850 -32 c 0
 1317.02 -32 1554 78.8848 1554 544 c 256
850 960 m 0
 1129.71 960 1330.18 950.186 1355.5 697 c 0
 1359.83 653.667 1362 602.667 1362 544 c 256
 1362 263.976 1305.2 155.37 1043.5 134.5 c 0
 989.167 130.167 924.667 128 850 128 c 0
 572.495 128 389.46 143.457 349.5 381.5 c 0
 341.833 427.167 338 482.333 338 547 c 0
 338 907.68 486.363 960 850 960 c 0
EndSplineSet
EndChar

StartChar: dcroat
Encoding: 273 273 208
Width: 1670
GlyphClass: 2
Flags: HW
HStem: -32 160<441.067 1145.47> 0 21G<1308 1500> 960 160<436.373 1137.85> 1249 160<860 1308 1500 1628> 1516 20G<1308 1500>
VStem: 92 192<270.05 819.451> 1308 192<0 127 275.08 799.437 960 1249 1409 1536>
LayerCount: 2
Fore
SplineSet
796 1120 m 0xbe
 1004.55 1120 1235.95 1089.69 1308 960 c 1
 1308 1249 l 1
 860 1249 l 1
 860 1409 l 1
 1308 1409 l 1
 1308 1536 l 1
 1500 1536 l 1
 1500 1409 l 1
 1628 1409 l 1
 1628 1249 l 1
 1500 1249 l 1
 1500 0 l 1
 1308 0 l 1x7e
 1308 127 l 1
 1235.91 -2.77148 1004.79 -32 796 -32 c 0
 328.984 -32 92 78.8848 92 544 c 256
 92 1009.1 328.979 1120 796 1120 c 0xbe
796 128 m 0xbe
 1071.05 128 1256.66 142.421 1296.5 378 c 0
 1304.17 423.333 1308 477.667 1308 541 c 0
 1308 904.915 1162.97 960 796 960 c 0
 516.287 960 315.818 950.186 290.5 697 c 0
 286.167 653.667 284 602.667 284 544 c 256
 284 263.976 340.8 155.37 602.5 134.5 c 0
 656.833 130.167 721.333 128 796 128 c 0xbe
EndSplineSet
EndChar

StartChar: dotlessi
Encoding: 305 305 235
Width: 465
GlyphClass: 2
Flags: HW
VStem: 137 192
LayerCount: 2
Fore
SplineSet
137 0 m 1
 329 0 l 1
 329 1088 l 1
 137 1088 l 1
 137 0 l 1
EndSplineSet
EndChar

StartChar: kgreenlandic
Encoding: 312 312 242
Width: 1442
GlyphClass: 2
Flags: HW
VStem: 1107 288<800 1088> 1139 288<0 288>
DStem2: 403 656 579 576 0.847064 0.531491<106.564 825.937> 579 576 403 512 0.827217 -0.561883<0 786.886>
LayerCount: 2
Fore
SplineSet
147 0 m 1x80
 339 0 l 1
 339 512 l 1
 403 512 l 1
 1139 0 l 1
 1427 0 l 1x40
 579 576 l 1
 1395 1088 l 1
 1107 1088 l 1
 403 656 l 1
 339 656 l 1
 339 1536 l 1
 147 1536 l 1
 147 0 l 1x80
EndSplineSet
EndChar

StartChar: Lslash
Encoding: 321 321 251
Width: 1647
GlyphClass: 2
Flags: HW
HStem: 768 160<65 225> 928 160<609 769>
DStem2: 65 928 65 768 0.975133 0.221621<0 686.494>
LayerCount: 2
Fore
SplineSet
65 768 m 1x80
 769 928 l 1
 769 1088 l 1x40
 65 928 l 1
 65 768 l 1x80
1601 0 m 1
 1601 160 l 1
 385 160 l 1
 385 1536 l 1
 193 1536 l 1
 193 0 l 1
 1601 0 l 1
EndSplineSet
EndChar

StartChar: lslash
Encoding: 322 322 252
Width: 705
GlyphClass: 2
Flags: HW
HStem: 768 160<65 225> 928 160<481 641>
VStem: 65 576
DStem2: 65 928 65 768 0.963518 0.267644<0 554.986>
LayerCount: 2
Fore
SplineSet
65 768 m 1xa0
 641 928 l 1
 641 1088 l 1x60
 65 928 l 1
 65 768 l 1xa0
193 0 m 1
 385 0 l 1
 385 1536 l 1
 193 1536 l 1
 193 0 l 1
EndSplineSet
EndChar

StartChar: OE
Encoding: 338 338 265
Width: 3525
GlyphClass: 2
Flags: HW
HStem: -32 160<444.978 1753.81> 0 160<2091 3435> 704 160<2091 3371> 1376 160<2091 3435> 1406 158.688<435.458 1748.3>
VStem: 110.002 186.528<273.343 1255.43> 1899.45 191.552<274.494 704 864 1255.67>
LayerCount: 2
Fore
SplineSet
1388 1564 m 2xae
 1407.02 1564.41 1425.69 1564.63 1444 1564.63 c 0
 1634.3 1564.63 1786.34 1541.33 1899 1472 c 1
 1899 1536 l 1
 3435 1536 l 1
 3435 1376 l 1
 2091 1376 l 1
 2091 864 l 1
 3371 864 l 1
 3371 704 l 1
 2091 704 l 1
 2091 160 l 1
 3435 160 l 1
 3435 0 l 1
 1899 0 l 1x76
 1899 64 l 1
 1775.46 -12.0234 1603.73 -32 1388 -32 c 2
 810.002 -32 l 2
 347.174 -32 121.995 72.2344 110.002 520 c 0
 108.002 594.667 107.002 677.334 107.002 768 c 258
 107 792.617 l 2
 107 1107.46 109.598 1366.95 315.002 1481.5 c 0
 425.886 1543.34 571.891 1564.69 751.897 1564.69 c 0
 770.888 1564.69 790.256 1564.45 810.002 1564 c 2
 1388 1564 l 2xae
1388 128 m 2xae
 1649.36 128 1837.33 129.569 1880 346 c 0
 1896.94 431.883 1899.45 525.854 1899.45 630.156 c 0
 1899.45 674.206 1899 720.098 1899 768 c 256
 1899 833.855 1900.58 897.305 1900.58 956.92 c 0
 1900.58 1201.46 1874.06 1381.49 1603.5 1398.5 c 0
 1545.17 1402.17 1473.33 1404 1388 1404 c 2
 810.002 1404 l 1
 773.019 1405.16 737.503 1406 703.66 1406 c 0
 497.527 1406 353.396 1374.57 317.002 1190 c 0
 301.002 1108.86 298.315 1020.45 298.315 922.983 c 0
 298.315 873.715 299.002 822.132 299.002 768 c 256
 299.002 699.456 296.53 629.598 296.53 562.643 c 0
 296.53 380.914 314.739 220.58 450.002 166 c 0
 543.896 128.112 663.665 128 807.416 128 c 2
 810.002 128 l 1
 1388 128 l 2xae
EndSplineSet
EndChar

StartChar: oe
Encoding: 339 339 266
Width: 2758
GlyphClass: 2
Flags: HW
HStem: -32 160<435.658 1142.48 1662.71 2379.06> 960 160<436.354 1157.68 1661.66 2309.75>
VStem: 91 192<268.633 813.523> 1307 192<276.746 512 640 810.926> 2459 192<201.698 320 640 823.419>
LayerCount: 2
Fore
SplineSet
795 1120 m 0
 327.984 1120 91 1009.12 91 544 c 256
 91 78.9023 327.979 -32 795 -32 c 0
 1048.67 -32 1320.04 26.0742 1403 192 c 1
 1486.47 25.0635 1761.56 -34.4199 2030.79 -34.4199 c 0
 2351.75 -34.4199 2651 1.45898 2651 320 c 1
 2459 320 l 1
 2459 139.875 2287.43 127.703 2099.64 127.703 c 0
 2070.29 127.703 2040.55 128 2011 128 c 0
 1772.02 128 1584.04 129.799 1525 303.5 c 0
 1507.67 354.5 1499 424 1499 512 c 1
 2635 512 l 1
 2651 576 l 1
 2651 992.775 2431.11 1120 2011 1120 c 0
 1794.96 1120 1587.51 1078.72 1467.5 985 c 0
 1432.5 957.667 1411 928 1403 896 c 1
 1357.47 1070.53 1019.96 1120 795 1120 c 0
283 544 m 0
 283 793.374 335.168 924.55 553 949 c 0
 618.333 956.333 699 960 795 960 c 256
 1041.79 960 1223.37 954.979 1281 771 c 0
 1298.33 715.667 1307 640 1307 544 c 256
 1307 294.626 1254.83 163.45 1037 139 c 0
 971.667 131.667 891 128 795.001 128 c 0
 513.979 128 317.219 138.251 290 391 c 0
 285.333 434.333 283 485.333 283 544 c 0
1499 640 m 1
 1499 951.957 1696.81 960 2011 960 c 0
 2288.67 960 2459 915.978 2459 640 c 1
 1499 640 l 1
EndSplineSet
EndChar

StartChar: scedilla
Encoding: 351 351 278
Width: 1549
GlyphClass: 2
Flags: HW
HStem: -619 159.899<676 850.845> -298.835 95.8352<804 864.258> -11 138.703<372.566 676 804 1154.21> 510.858 156.156<360.198 1182.72> 1024 160<366.018 1178.75>
VStem: 100 192<199.908 320 728.988 964.276> 676 128<-203 -11> 868 192<-443.65 -312.143> 1252 192<209.133 451.005 848 954.615>
LayerCount: 2
Fore
SplineSet
600.654 510.858 m 0
 295.688 510.858 100 546.841 100 860 c 0
 100 1176.37 471.11 1184 804 1184 c 0
 1138.44 1184 1444 1169.05 1444 848 c 1
 1252 848 l 1
 1252 1011.95 1077.62 1024.4 899.254 1024.4 c 0
 867.305 1024.4 835.227 1024 804 1024 c 0
 747.591 1024 685.423 1026.47 624.43 1026.47 c 0
 453.603 1026.47 292 1007.11 292 860 c 0
 292 692.631 406.747 667.015 557.739 667.015 c 0
 624.352 667.015 698.019 672 772 672 c 0
 794.958 672 817.856 672.055 840.6 672.055 c 0
 1157.34 672.055 1444 661.422 1444 344 c 256
 1444 7.43066 1140.13 -7.79883 804 -11 c 1
 804 -203 l 1
 934.236 -203 1060 -233.236 1060 -363 c 0
 1060 -577.104 888.142 -619 676 -619 c 1
 676 -459 l 1
 688.425 -459 700.629 -459.101 712.486 -459.101 c 0
 799.6 -459.101 868 -453.669 868 -363 c 0
 868 -303.528 790.763 -298.835 716.744 -298.835 c 0
 702.873 -298.835 689.115 -299 676 -299 c 1
 676 -11 l 1
 373.76 -4.47656 100 21.0049 100 320 c 1
 292 320 l 1
 292 139.875 463.568 127.703 651.359 127.703 c 0
 680.708 127.703 710.452 128 740 128 c 0
 790.129 128 841.722 126.579 891.966 126.579 c 0
 1081.59 126.579 1252 146.812 1252 340 c 0
 1252 494.977 1098.3 514.023 932.742 514.023 c 0
 878.784 514.023 823.566 512 772 512 c 0
 715.352 512 657.477 510.858 600.654 510.858 c 0
EndSplineSet
EndChar

StartChar: florin
Encoding: 402 402 311
Width: 1010
GlyphClass: 2
Flags: HW
HStem: -288 159.873<-22 232.584> 960 128<106 298 490 938> 1408.13 159.873<555.416 938>
VStem: 298 192<-58.8091 960 1088 1339>
LayerCount: 2
Fore
SplineSet
32.8184 -128.127 m 0
 233.355 -128.127 298 -83.7148 298 128 c 2
 298 960 l 1
 106 960 l 1
 106 1088 l 1
 298 1088 l 1
 298 1152 l 2
 298 1491.52 469.146 1568 811 1568 c 2
 938 1568 l 1
 938 1408 l 1
 810 1408 l 2
 791.151 1408 772.85 1408.13 755.183 1408.13 c 0
 554.645 1408.13 490 1363.71 490 1152 c 2
 490 1088 l 1
 938 1088 l 1
 938 960 l 1
 490 960 l 1
 490 128 l 2
 490 -211.038 318.846 -288 -23 -288 c 1
 -22 -128 l 1
 -3.15137 -128 15.1504 -128.127 32.8184 -128.127 c 0
EndSplineSet
EndChar

StartChar: dotlessj
Encoding: 567 567 411
Width: 477
GlyphClass: 2
Flags: HW
HStem: -384 160<-13 113.732>
VStem: 147 192<-194.224 -64>
LayerCount: 2
Fore
SplineSet
-13 -384 m 1
 240.806 -384 339 -312.032 339 -64 c 2
 339 1088 l 1
 147 1088 l 1
 147 -64 l 2
 147 -187.419 110.425 -224 -13 -224 c 1
 -13 -384 l 1
EndSplineSet
EndChar

StartChar: circumflex
Encoding: 710 710 412
Width: 1017
GlyphClass: 2
Flags: HW
HStem: 1728 128<417 609>
DStem2: 97 1376 225 1280 0.5547 0.83205<0 523.637> 609 1856 513 1728 0.5547 -0.83205<53.2512 576.888>
LayerCount: 2
Fore
SplineSet
801 1280 m 1
 929 1376 l 1
 609 1856 l 1
 417 1856 l 1
 97 1376 l 1
 225 1280 l 1
 513 1728 l 1
 801 1280 l 1
EndSplineSet
EndChar

StartChar: caron
Encoding: 711 711 413
Width: 916
GlyphClass: 2
Flags: HW
HStem: 1280 128<364 556>
DStem2: 172 1856 44 1760 0.5547 -0.83205<8.87521 532.512> 460 1408 556 1280 0.5547 0.83205<0 523.637>
LayerCount: 2
Fore
SplineSet
460 1408 m 1
 172 1856 l 1
 44 1760 l 1
 364 1280 l 1
 556 1280 l 1
 876 1760 l 1
 748 1856 l 1
 460 1408 l 1
EndSplineSet
EndChar

StartChar: breve
Encoding: 728 728 414
Width: 948
GlyphClass: 2
Flags: HW
HStem: 1280 128<300.645 661.37>
VStem: 97 160<1451.88 1600> 705 160<1451.88 1600>
LayerCount: 2
Fore
SplineSet
481 1408 m 256
 323.027 1408 257 1438.68 257 1600 c 1
 97 1600 l 1
 97 1364.5 238.381 1280 481 1280 c 256
 723.671 1280 865 1364.47 865 1600 c 1
 705 1600 l 1
 705 1438.69 638.99 1408 481 1408 c 256
EndSplineSet
EndChar

StartChar: dotaccent
Encoding: 729 729 415
Width: 405
GlyphClass: 2
Flags: HW
HStem: 1344 192
VStem: 113 192
LayerCount: 2
Fore
SplineSet
305 1536 m 1
 113 1536 l 1
 113 1344 l 1
 305 1344 l 1
 305 1536 l 1
EndSplineSet
EndChar

StartChar: ring
Encoding: 730 730 416
Width: 886
GlyphClass: 2
Flags: HW
HStem: 1280 128<312.024 587.979> 1792 128<312.021 587.976>
VStem: 98 160<1460.77 1739.24> 642 160<1460.76 1739.23>
LayerCount: 2
Fore
SplineSet
802 1600 m 256
 802 1807.61 663.313 1920 450 1920 c 256
 236.668 1920 98 1807.62 98 1600 c 256
 98 1392.39 236.687 1280 450 1280 c 256
 663.332 1280 802 1392.38 802 1600 c 256
642 1600 m 256
 642 1472.19 581.214 1408 450 1408 c 256
 318.781 1408 258 1472.18 258 1600 c 256
 258 1727.81 318.786 1792 450 1792 c 256
 581.219 1792 642 1727.82 642 1600 c 256
EndSplineSet
EndChar

StartChar: ogonek
Encoding: 731 731 417
Width: 555
GlyphClass: 2
Flags: HW
HStem: -512 160<297.357 457>
VStem: 73 192<-318.839 -111.466>
LayerCount: 2
Fore
SplineSet
265 -224 m 0
 265 -330.353 342.706 -352 457 -352 c 1
 457 -512 l 1
 260.608 -512 73 -451.55 73 -256 c 0
 73 -92.6289 219.361 4.6123 329 64 c 1
 457 64 l 1
 361.032 0.0214844 265 -83.8672 265 -224 c 0
EndSplineSet
EndChar

StartChar: tilde
Encoding: 732 732 418
Width: 1081
GlyphClass: 2
Flags: HW
HStem: 1344 160<571.911 801.927> 1440 161<303.558 534.194>
VStem: 105 192<1344 1433> 809 192<1506.31 1600>
LayerCount: 2
Fore
SplineSet
297 1344 m 1xb0
 297 1402.71 304.233 1440 361 1440 c 0x70
 506.575 1440 580.081 1344 745 1344 c 0
 895.56 1344 1001 1444.47 1001 1600 c 1
 809 1600 l 1
 809 1541.96 801.377 1504 745 1504 c 0xb0
 598.966 1504 526.609 1601 361 1601 c 0x70
 207.171 1601 105 1502.93 105 1344 c 1
 297 1344 l 1xb0
EndSplineSet
EndChar

StartChar: hungarumlaut
Encoding: 733 733 419
Width: 1391
GlyphClass: 2
Flags: HW
LayerCount: 2
Fore
SplineSet
800 1664 m 1
 672 1856 l 1
 96 1376 l 1
 160 1280 l 1
 800 1664 l 1
1353 1664 m 1
 1225 1856 l 1
 649 1376 l 1
 713 1280 l 1
 1353 1664 l 1
EndSplineSet
EndChar

StartChar: uni03A9
Encoding: 937 937 420
Width: 1499
GlyphClass: 2
Flags: HW
HStem: 0 224<441.421 590 910 1058.57> 0 160<206 398 1102 1294> 1183 159<452.8 1042.16>
VStem: 142 192<378.471 1037.47> 1166 192<378.476 1030.4>
LayerCount: 2
Fore
SplineSet
334 671 m 0xb8
 334 427.073 362.371 224 590 224 c 1
 590 0 l 1xb8
 206 0 l 1
 206 160 l 1
 398 160 l 1
 210.673 227.56 142 411.646 142 671 c 0
 142 1145.91 270.71 1342 750 1342 c 256
 1224.63 1342 1358 1149.43 1358 671 c 0
 1358 411.626 1289.33 227.57 1102 160 c 1
 1294 160 l 1
 1294 0 l 1x78
 910 0 l 1
 910 224 l 1
 1137.61 224 1166 427.112 1166 671 c 0
 1166 955.852 1163.88 1169.54 892 1180.5 c 0
 850.665 1182.17 803.332 1183 750 1183 c 256
 553.161 1183 421.489 1180.04 370.5 1031 c 0
 337.275 933.883 334 814.946 334 671 c 0xb8
EndSplineSet
EndChar

StartChar: pi
Encoding: 960 960 421
Width: 499
GlyphClass: 2
Flags: HW
HStem: 0 21G<154 346> 1344 192<154 346>
VStem: 154 192<0 1088 1344 1536>
LayerCount: 2
Fore
SplineSet
154 1088 m 1
 346 1088 l 1
 346 0 l 1
 154 0 l 1
 154 1088 l 1
346 1344 m 1
 154 1344 l 1
 154 1536 l 1
 346 1536 l 1
 346 1344 l 1
154 1088 m 1
 346 1088 l 1
 346 0 l 1
 154 0 l 1
 154 1088 l 1
346 1344 m 1
 154 1344 l 1
 154 1536 l 1
 346 1536 l 1
 346 1344 l 1
EndSplineSet
EndChar

StartChar: endash
Encoding: 8211 8211 422
Width: 1038
GlyphClass: 2
Flags: HW
HStem: 512 160
LayerCount: 2
Fore
SplineSet
106 512 m 1
 938 512 l 1
 938 672 l 1
 106 672 l 1
 106 512 l 1
EndSplineSet
EndChar

StartChar: emdash
Encoding: 8212 8212 423
Width: 1294
GlyphClass: 2
Flags: HW
HStem: 512 160
LayerCount: 2
Fore
SplineSet
106 512 m 1
 1194 512 l 1
 1194 672 l 1
 106 672 l 1
 106 512 l 1
EndSplineSet
EndChar

StartChar: quoteleft
Encoding: 8216 8216 424
Width: 447
GlyphClass: 2
Flags: HW
HStem: 1152 384
LayerCount: 2
Fore
SplineSet
105 1152 m 1
 233 1152 l 1
 361 1536 l 1
 169 1536 l 1
 105 1152 l 1
EndSplineSet
EndChar

StartChar: quoteright
Encoding: 8217 8217 425
Width: 447
GlyphClass: 2
Flags: HW
HStem: 1152 384
LayerCount: 2
Fore
SplineSet
105 1152 m 1
 233 1152 l 1
 361 1536 l 1
 169 1536 l 1
 105 1152 l 1
EndSplineSet
EndChar

StartChar: quotesinglbase
Encoding: 8218 8218 426
Width: 444
GlyphClass: 2
Flags: HW
HStem: -256 384
LayerCount: 2
Fore
SplineSet
88 -256 m 1
 216 -256 l 1
 344 128 l 1
 152 128 l 1
 88 -256 l 1
EndSplineSet
EndChar

StartChar: quotedblleft
Encoding: 8220 8220 427
Width: 703
GlyphClass: 2
Flags: HW
HStem: 1152 384
LayerCount: 2
Fore
SplineSet
361 1152 m 1
 489 1152 l 1
 617 1536 l 1
 425 1536 l 1
 361 1152 l 1
105 1152 m 1
 233 1152 l 1
 361 1536 l 1
 169 1536 l 1
 105 1152 l 1
EndSplineSet
EndChar

StartChar: quotedblright
Encoding: 8221 8221 428
Width: 767
GlyphClass: 2
Flags: HW
HStem: 1152 384
LayerCount: 2
Fore
SplineSet
105 1152 m 1
 233 1152 l 1
 361 1536 l 1
 169 1536 l 1
 105 1152 l 1
425 1152 m 1
 553 1152 l 1
 681 1536 l 1
 489 1536 l 1
 425 1152 l 1
EndSplineSet
EndChar

StartChar: quotedblbase
Encoding: 8222 8222 429
Width: 770
GlyphClass: 2
Flags: HW
HStem: -192 384
LayerCount: 2
Fore
SplineSet
93 -192 m 1
 221 -192 l 1
 349 192 l 1
 157 192 l 1
 93 -192 l 1
413 -192 m 1
 541 -192 l 1
 669 192 l 1
 477 192 l 1
 413 -192 l 1
EndSplineSet
EndChar

StartChar: dagger
Encoding: 8224 8224 430
Width: 786
GlyphClass: 2
Flags: HW
LayerCount: 2
Fore
SplineSet
746 928 m 1
 746 1088 l 1
 490 1088 l 1
 490 1600 l 1
 298 1600 l 1
 298 1088 l 1
 42 1088 l 1
 42 928 l 1
 298 928 l 1
 298 -128 l 1
 490 -128 l 1
 490 928 l 1
 746 928 l 1
EndSplineSet
EndChar

StartChar: daggerdbl
Encoding: 8225 8225 431
Width: 838
GlyphClass: 2
Flags: HW
LayerCount: 2
Fore
SplineSet
773 320 m 1
 773 480 l 1
 517 480 l 1
 517 928 l 1
 773 928 l 1
 773 1088 l 1
 517 1088 l 1
 517 1600 l 1
 325 1600 l 1
 325 1088 l 1
 69 1088 l 1
 69 928 l 1
 325 928 l 1
 325 480 l 1
 69 480 l 1
 69 320 l 1
 325 320 l 1
 325 -128 l 1
 517 -128 l 1
 517 320 l 1
 773 320 l 1
EndSplineSet
EndChar

StartChar: bullet
Encoding: 8226 8226 432
Width: 727
GlyphClass: 2
Flags: HW
HStem: 256 512<201.28 530.336>
VStem: 110 512<346.533 677.47>
LayerCount: 2
Fore
SplineSet
110 512 m 256
 110 341.013 197.722 256 366 256 c 256
 533.376 256 622 341.992 622 512 c 256
 622 682.015 533.383 768 366 768 c 256
 197.73 768 110 682.981 110 512 c 256
EndSplineSet
EndChar

StartChar: guilsinglleft
Encoding: 8249 8249 435
Width: 814
GlyphClass: 2
Flags: HW
VStem: 89 128<512 704>
DStem2: 89 704 217 608 0.816968 0.576683<49.2103 665.877> 217 608 89 512 0.816968 -0.576683<0 616.667>
LayerCount: 2
Fore
SplineSet
217 608 m 1
 729 960 l 1
 633 1088 l 1
 89 704 l 1
 89 512 l 1
 633 128 l 1
 729 256 l 1
 217 608 l 1
EndSplineSet
EndChar

StartChar: guilsinglright
Encoding: 8250 8250 436
Width: 816
GlyphClass: 2
Flags: HW
VStem: 606 128<512 704>
DStem2: 190 1088 94 960 0.816968 -0.576683<0 616.667> 94 256 190 128 0.816968 0.576683<4.61346 621.28>
LayerCount: 2
Fore
SplineSet
94 256 m 1
 190 128 l 1
 734 512 l 1
 734 704 l 1
 190 1088 l 1
 94 960 l 1
 606 608 l 1
 94 256 l 1
EndSplineSet
EndChar

StartChar: fraction
Encoding: 8260 8260 437
Width: 934
GlyphClass: 2
Flags: HW
DStem2: 17 0 209 0 0.416655 0.909065<79.9977 1689.65>
LayerCount: 2
Fore
SplineSet
17 0 m 1
 209 0 l 1
 913 1536 l 1
 721 1536 l 1
 17 0 l 1
EndSplineSet
EndChar

StartChar: foursuperior
Encoding: 8308 8308 438
Width: 1363
GlyphClass: 2
Flags: HW
DStem2: 79 384 271 352 0.737154 0.675725<119.91 1002.53>
LayerCount: 2
Fore
SplineSet
1295 192 m 1
 1295 352 l 1
 1103 352 l 1
 1103 1088 l 1
 847 1088 l 1
 79 384 l 1
 79 192 l 1
 911 192 l 1
 911 0 l 1
 1103 0 l 1
 1103 192 l 1
 1295 192 l 1
271 352 m 1
 911 960 l 1
 911 352 l 1
 271 352 l 1
EndSplineSet
EndChar

StartChar: Euro
Encoding: 8364 8364 439
Width: 1988
GlyphClass: 2
Flags: HW
HStem: 0 158<464.507 842 1180 1530.92> 1409 160<455.707 683 1235 1560.52> 1409 25<977 981.999>
VStem: 100 189<328.085 811 927 1246.51> 1692 192<299.091 674.5 919 1268.74>
LayerCount: 2
Fore
SplineSet
1104 1569 m 1xd8
 1017.23 1561.77 917.991 1560.29 820.872 1560.29 c 0
 753.614 1560.29 687.375 1561 627 1561 c 0
 217.318 1555.58 100 1349.58 100 927 c 0
 100 869 100 869 100 811 c 0
 100 350.249 128.146 24.6152 581 9 c 0
 648.509 6.67188 720.61 0 787 0 c 2
 1104.01 0 l 2
 1209.4 0 1326.19 6 1430 6 c 1
 1818.31 27.9795 1884 258.853 1884 674.5 c 2
 1884 919 l 2
 1884 1276.04 1807.9 1523.88 1473 1551.5 c 0
 1400.77 1557.52 1306.88 1564.77 1235 1569 c 1
 1191.33 1569 1147.67 1569 1104 1569 c 1xd8
918.5 158 m 2
 905.853 158 890.472 157.402 876.198 157.402 c 0
 862.738 157.402 850.265 157.934 842 160 c 1
 515.712 160 319.31 163.062 299 488 c 0
 295.629 541.938 289 609.986 289 664 c 0
 289 778.667 289 893.333 289 1008 c 0
 289 1299.64 387.11 1401 683 1401 c 0
 715 1401 744.667 1401.67 772 1403 c 1
 825.326 1403 898.745 1409 952 1409 c 2
 1008 1409 l 2xb8
 1163.31 1409 1290.25 1402.78 1442 1395 c 1
 1621.78 1389.86 1692 1254.6 1692 1071 c 2
 1692 504 l 2
 1692 180.95 1508.22 160 1180 160 c 1
 1175.19 157.593 1165.55 156.92 1154.67 156.92 c 0
 1140.88 156.92 1125.07 158 1114.5 158 c 2
 918.5 158 l 2
979 1440 m 0
 981 1440 982 1439 982 1437 c 0
 982 1435 981 1434 979 1434 c 0
 977.667 1434 977 1435 977 1437 c 0
 977 1439 977.667 1440 979 1440 c 0
EndSplineSet
EndChar

StartChar: trademark
Encoding: 8482 8482 440
Width: 2695
GlyphClass: 2
Flags: HW
DStem2: 1471 1536 1343 1408 0.507822 -0.861462<45.2659 773.906> 1855 864 1952 704 0.519272 0.854609<0 712.828>
LayerCount: 2
Fore
SplineSet
63 1536 m 1
 63 1408 l 1
 447 1408 l 1
 447 704 l 1
 639 704 l 1
 639 1408 l 1
 1023 1408 l 1
 1023 1536 l 1
 63 1536 l 1
1758 704 m 1
 1952 704 l 1
 2367 1387 l 1
 2367 704 l 1
 2559 704 l 1
 2559 1536 l 1
 2253 1536 l 1
 1855 864 l 1
 1471 1536 l 1
 1151 1536 l 1
 1151 704 l 1
 1343 704 l 1
 1343 1408 l 1
 1758 704 l 1
EndSplineSet
EndChar

StartChar: Omega
Encoding: 8486 8486 441
Width: 1393
GlyphClass: 2
Flags: HW
HStem: 0 224<388.43 537 857 1005.58> 1183 159<404.842 994.199>
VStem: 89 192<378.477 1030.4> 1113 192<378.471 1037.47>
LayerCount: 2
Fore
SplineSet
345 160 m 1
 153 160 l 1
 153 0 l 1
 537 0 l 1
 537 224 l 1
 309.391 224 281 427.112 281 671 c 0
 281 955.852 283.115 1169.54 555 1180.5 c 0
 596.333 1182.17 643.667 1183 697 1183 c 256
 893.839 1183 1025.51 1180.04 1076.5 1031 c 0
 1109.72 933.883 1113 814.946 1113 671 c 0
 1113 427.073 1084.63 224 857 224 c 1
 857 0 l 1
 1241 0 l 1
 1241 160 l 1
 1049 160 l 1
 1236.33 227.561 1305 411.646 1305 671 c 0
 1305 1145.91 1176.29 1342 697 1342 c 256
 222.368 1342 89 1149.43 89 671 c 0
 89 411.631 157.663 227.564 345 160 c 1
EndSplineSet
EndChar

StartChar: partialdiff
Encoding: 8706 8706 442
Width: 1898
GlyphClass: 2
Flags: HW
HStem: -32 160<409.729 1460.4> 768 160<395.142 1492.76> 1408.52 159.479<427.826 1385.67>
VStem: 73 192<250.489 656.938> 137 160<1120 1305.53> 1609 192<263.525 677.318 832 1204.26>
LayerCount: 2
Fore
SplineSet
1097 928 m 2xf4
 1313.55 928 1484.27 907.148 1609 832 c 1
 1609 1118.81 1594.88 1311.11 1372 1372.5 c 0
 1244.53 1407.64 1093.21 1408 916.421 1408 c 2
 905 1408 l 258
 866.349 1408 825.106 1408.52 783.002 1408.52 c 0
 554.327 1408.52 300.208 1393.15 297.5 1195.5 c 0
 297.167 1171.17 297 1146 297 1120 c 1
 137 1120 l 1xec
 137 1545.27 473.703 1568 905 1568 c 0
 1420.11 1568 1757.35 1502.58 1792.5 1027 c 0
 1798.17 950.333 1801 864 1801 768 c 2
 1801 754.94 l 2
 1801 435.781 1799.61 169.268 1592.5 54.5 c 0
 1469.04 -13.915 1303.61 -32 1097 -32 c 2
 776 -32 l 2
 350.955 -32 73 35.623 73 448 c 256
 73 860.354 350.982 928 776 928 c 2
 1097 928 l 2xf4
776 768 m 1
 741.709 768.012 l 2
 510.104 768.012 301.265 763.263 272 560.5 c 0
 267.333 528.166 265 490.666 265 448 c 256xf4
 265 136.232 461.653 128 776 128 c 2
 1097 128 l 2
 1340.13 128 1537.24 135.702 1588 317 c 0
 1602 367 1609 432 1609 512 c 0
 1609 750.804 1446.04 768.54 1220.33 768.54 c 0
 1180.95 768.54 1139.66 768 1097 768 c 2
 776 768 l 1
EndSplineSet
EndChar

StartChar: Delta
Encoding: 8710 8710 443
Width: 1450
GlyphClass: 2
Flags: HW
HStem: -1 160<278 1174> 1408 128<598 854>
LayerCount: 2
Fore
SplineSet
22 -1 m 1
 598 1536 l 1
 854 1536 l 1
 1430 -1 l 1
 22 -1 l 1
1174 159 m 1
 726 1408 l 1
 278 159 l 1
 1174 159 l 1
EndSplineSet
EndChar

StartChar: product
Encoding: 8719 8719 444
Width: 1830
GlyphClass: 2
Flags: HW
HStem: 0 21G<149 341 1493 1685> 1376 160<341 1493>
VStem: 149 192<0 1376> 1493 192<0 1376>
LayerCount: 2
Fore
SplineSet
1685 0 m 1
 1493 0 l 1
 1493 1376 l 1
 341 1376 l 1
 341 0 l 1
 149 0 l 1
 149 1536 l 1
 1685 1536 l 1
 1685 0 l 1
EndSplineSet
EndChar

StartChar: summation
Encoding: 8721 8721 445
Width: 1557
GlyphClass: 2
Flags: HW
HStem: 0 160<276 1492> 1376 160<276 1492>
DStem2: 276 1376 84 1360 0.707107 -0.707107<0 690.136> 84 176 276 160 0.687745 0.725953<120.432 837.52>
LayerCount: 2
Fore
SplineSet
820 736 m 1
 276 160 l 1
 1492 160 l 1
 1492 0 l 1
 84 0 l 1
 84 176 l 1
 660 784 l 1
 84 1360 l 1
 84 1536 l 1
 1492 1536 l 1
 1492 1376 l 1
 276 1376 l 1
 820 832 l 1
 820 736 l 1
EndSplineSet
EndChar

StartChar: minus
Encoding: 8722 8722 446
Width: 1422
GlyphClass: 2
Flags: HW
HStem: 512 160
LayerCount: 2
Fore
SplineSet
106 512 m 1
 1322 512 l 1
 1322 672 l 1
 106 672 l 1
 106 512 l 1
EndSplineSet
EndChar

StartChar: radical
Encoding: 8730 8730 447
Width: 1431
GlyphClass: 2
Flags: HW
HStem: 0 21G<531.571 806.917> 1516 20G<1175.73 1407>
DStem2: 255 896 31 896 0.496139 -0.868243<0 873.205>
LayerCount: 2
Fore
SplineSet
31 896 m 1
 255 896 l 1
 671 128 l 1
 1183 1536 l 1
 1407 1536 l 1
 799 0 l 1
 543 0 l 1
 31 896 l 1
EndSplineSet
EndChar

StartChar: infinity
Encoding: 8734 8734 448
Width: 2448
GlyphClass: 2
Flags: HW
HStem: -32 160<587.948 781.397 1692.09 2010.93> 960 160<436.136 779.967 1677.79 2017.86>
VStem: 107 192<381.349 814.868> 2155 192<285.259 814.865>
LayerCount: 2
Fore
SplineSet
2347 544 m 256
 2347 175.864 2191.93 -32 1833 -32 c 0
 1537.02 -32 1354.57 216.114 1230 393 c 1
 1122.36 241.037 986.248 87.7266 806.5 7.5 c 0
 747.5 -18.833 685.667 -32 621 -32 c 0
 262.095 -32 107 175.883 107 544 c 256
 107 912.136 262.067 1120 621 1120 c 0
 933.805 1120 1104.51 875.318 1238 687 c 1
 1362.31 867.813 1537.6 1120 1833 1120 c 0
 2191.9 1120 2347 912.117 2347 544 c 256
299 544 m 0
 299 290.856 503.532 279.76 621 128 c 1
 797.517 128 933.472 285.511 1021.5 390 c 0
 1062.5 438.667 1100.33 487 1135 535 c 1
 1038.01 680.487 925.93 838.545 770 922 c 0
 722.667 947.333 673 960 621 960 c 0
 362.995 960 299 805.384 299 544 c 0
2155 544 m 0
 2155 805.388 2091.01 960 1833 960 c 0
 1660.37 960 1528.79 798.362 1444 694.5 c 0
 1404 645.5 1367.33 596.667 1334 548 c 1
 1432.41 407.143 1551.35 252.492 1701 166.5 c 0
 1745.67 140.833 1789.67 128 1833 128 c 0
 2075.65 128 2155 290.879 2155 544 c 0
EndSplineSet
EndChar

StartChar: integral
Encoding: 8747 8747 449
Width: 849
GlyphClass: 2
Flags: HW
HStem: -288 159.873<-10 244.584> 1408.13 159.873<574.446 822>
VStem: 310 192<-58.8091 1338.64>
LayerCount: 2
Fore
SplineSet
44.8184 -128.127 m 0
 245.355 -128.127 310 -83.7148 310 128 c 2
 310 1152 l 2
 310 1490.61 480.543 1568 822 1568 c 1
 822 1408 l 1
 803.151 1408 784.85 1408.13 767.183 1408.13 c 0
 566.645 1408.13 502 1363.71 502 1152 c 2
 502 128 l 2
 502 -211.038 330.846 -288 -11 -288 c 1
 -10 -128 l 1
 8.84863 -128 27.1504 -128.127 44.8184 -128.127 c 0
EndSplineSet
EndChar

StartChar: approxequal
Encoding: 8776 8776 450
Width: 1133
GlyphClass: 2
Flags: HW
HStem: 447 160<604.697 816.9> 543 160<318.555 531.303> 832 160<604.697 816.9> 928 160<318.555 531.303>
VStem: 120 192<447 536.333 832 921.333> 824 192<609.203 703 994.203 1088>
LayerCount: 2
Fore
SplineSet
1016 703 m 1x4c
 1016 546.499 910.373 447 760 447 c 0x8c
 630.27 447 550.729 492.457 459.5 528 c 0
 433.833 538 406 543 376 543 c 0x4c
 319.237 543 312 505.709 312 447 c 1
 120 447 l 1x8c
 120 607.06 222.146 703 376 703 c 0x4c
 505.729 703 585.274 657.544 676.5 622 c 0
 702.167 612 730 607 760 607 c 0x8c
 816.374 607 824 644.968 824 703 c 1
 1016 703 l 1x4c
1016 1088 m 1x1c
 1016 931.499 910.373 832 760 832 c 0x2c
 630.27 832 550.729 877.457 459.5 913 c 0
 433.833 923 406 928 376 928 c 0x1c
 319.237 928 312 890.71 312 832 c 1
 120 832 l 1x2c
 120 992.06 222.146 1088 376 1088 c 0x1c
 505.729 1088 585.274 1042.54 676.5 1007 c 0
 702.167 997 730 992 760 992 c 0x2c
 816.374 992 824 1029.97 824 1088 c 1
 1016 1088 l 1x1c
EndSplineSet
EndChar

StartChar: notequal
Encoding: 8800 8800 451
Width: 1358
GlyphClass: 2
Flags: HW
DStem2: 331 -64 491 -128 0.368048 0.929807<0 1651.34>
LayerCount: 2
Fore
SplineSet
331 -64 m 1
 491 -128 l 1
 1099 1408 l 1
 939 1472 l 1
 331 -64 l 1
75 864 m 1
 1291 864 l 1
 1291 1024 l 1
 75 1024 l 1
 75 864 l 1
75 320 m 1
 1291 320 l 1
 1291 480 l 1
 75 480 l 1
 75 320 l 1
EndSplineSet
EndChar

StartChar: lessequal
Encoding: 8804 8804 452
Width: 1081
GlyphClass: 2
Flags: HW
HStem: -32 160<81 975>
VStem: 81 144<736 928>
LayerCount: 2
Fore
SplineSet
977 1472 m 1
 977 1216 l 1
 225 832 l 1
 977 448 l 1
 977 192 l 1
 81 736 l 1
 81 928 l 1
 977 1472 l 1
81 128 m 1
 975 128 l 1
 975 -32 l 1
 81 -32 l 1
 81 128 l 1
EndSplineSet
EndChar

StartChar: greaterequal
Encoding: 8805 8805 453
Width: 1085
GlyphClass: 2
Flags: HW
HStem: -32 160<111 1005>
VStem: 863 144<736 928>
LayerCount: 2
Fore
SplineSet
1007 928 m 1
 1007 736 l 1
 111 192 l 1
 111 448 l 1
 863 832 l 1
 111 1216 l 1
 111 1472 l 1
 1007 928 l 1
111 128 m 1
 1005 128 l 1
 1005 -32 l 1
 111 -32 l 1
 111 128 l 1
EndSplineSet
EndChar

StartChar: lozenge
Encoding: 9674 9674 454
Width: 1096
GlyphClass: 2
Flags: HW
HStem: 0 256<359 743> 1280 256<359 743>
VStem: 39 224<656 880> 839 224<656 880>
DStem2: 39 768 263 768 0.503871 0.863779<112.867 700.237> 263 768 39 768 0.503871 -0.863779<0 587.37> 615 1536 551 1280 0.503871 -0.863779<188.88 776.249> 551 256 615 0 0.503871 0.863779<0 587.37>
LayerCount: 2
Fore
SplineSet
1063 768 m 1
 615 1536 l 1
 487 1536 l 1
 39 768 l 1
 487 0 l 1
 615 0 l 1
 1063 768 l 1
263 768 m 1
 551 1280 l 1
 839 768 l 1
 551 256 l 1
 263 768 l 1
EndSplineSet
EndChar

StartChar: doublegrave
Encoding: 65538 -1 458
Width: 1385
GlyphClass: 2
Flags: HW
LayerCount: 2
Fore
SplineSet
1233 1280 m 1
 1297 1376 l 1
 721 1856 l 1
 593 1664 l 1
 1233 1280 l 1
680 1280 m 1
 744 1376 l 1
 168 1856 l 1
 40 1664 l 1
 680 1280 l 1
EndSplineSet
EndChar
